<mxfile host="app.diagrams.net" agent="Mozilla/5.0 (Windows NT 10.0; Win64; x64) AppleWebKit/537.36 (KHTML, like Gecko) Chrome/133.0.0.0 Safari/537.36" version="26.0.16">
  <diagram name="第 1 页" id="pAskgN3HLLfKAV_3Gljm">
    <mxGraphModel dx="2381" dy="821" grid="1" gridSize="10" guides="1" tooltips="1" connect="1" arrows="1" fold="1" page="1" pageScale="1" pageWidth="827" pageHeight="1169" math="0" shadow="0">
      <root>
        <mxCell id="0" />
        <mxCell id="1" parent="0" />
        <mxCell id="rij7Vu_CJ73uvpwCJqc9-2" value="" style="shape=image;verticalLabelPosition=bottom;labelBackgroundColor=default;verticalAlign=top;aspect=fixed;imageAspect=0;image=data:image/png,iVBORw0KGgoAAAANSUhEUgAAAMgAAADICAYAAACtWK6eAAAAAXNSR0IArs4c6QAAHB5JREFUeF7tXQmYJUWRjnj9RsYB0VFGxQvUVRCVAQFRDhkEkVGnO6OaxmNgRcBBUATXA1TUYT3xWBBBZQRX0fFquiJfj6yIKwwuoC7X4oF4IaviKqPgAajY/WJfDq+had5RlZH1zszv62+++TojMuLP+juzsiIjEGKLCEQEmiKAEZuIQESgOQKRIPHpiAi0QCASJD4eEYF+IYgxZjdEXI6IO4nIbgCwDAAeWf83TuTgIbAJAG4FgE2IeI2I3CAi11trr+kVV3tiBXHEKJVKa0RkTa8AE+3oHgKIuK5ara7rBaJ0lSATExNPnJmZOQEA3E9sEYH7ISAi71+0aNH7Jicn7+gWNF0jSJIkLxaRT9e3UN3yP47b4wgg4nWzs7OHVSqVG7phalcIMj4+vnu1Wr0IAB7RDafjmH2HwA+r1eqh3SBJxwmSJMl2IvJVAHhG301TNLibCHxvdnb2oOnp6d910oiOEmTVqlVLFi1aVBGRAzvpZBxrMBBAxM+lafrPnfSmowQxxpyNiMd10sE41mAhICLHWGvXdcqrjhFkYmJi2czMzA/jN41OTe3AjnMNM+/eKe86RpAkSY4TkbM75VgcZ3AR6OQq0jGCENHFAPCCwZ226FkHEfgGMx/UifE6QpCxsbHHl0qlX3bCoTjGcCBQrVafUKlUflW0tx0hiDHmdYj4saKdifqHBwEROd5ae1bRHneKIOcj4uFFOxP1Dw8CIvI5a23hR74dIQgR/Q8ALB+e6YuedgCB65l5l6LH6RRBqgCgGWtj0UBE/R1F4NkAsEQ5ojBzSamjrbjmoW2r3HUgIhdS8v1MnZt3OoqZXWBjbAOAgDHmWkTcNYArz2TmHwTQ01RF4QRJkuQVIrJe4wQi7pOm6RUaHVG2dxAgoi8CwMu0FiHi6jRNv6DV00q+cIIQ0QcA4CSFE78HgB2Z+Q8KHVG0hxAwxrwLEdcGMOk0Zj45gJ7urSBE9B8AsFLhxBXMvI9CPor2GAJE5FYPt4po29eY+UVaJd1eQX4NAI/1dQIRz0vT9Ghf+SjXewiMjo7uOjIycm0Ay25h5scF0NOdFYSI3IUot0XStLcw84c0CqJsbyGwcuXKLbbYYoufIOITAli2TZHb70LfQZIk2V9ELtGAULtyOZam6bRGR5TtPQRCxeYh4vPTNL20KA8LJQgRvR4APqowXuov6D9R6AgqaoxZYa3ty+8yvWS7MeZMRDw+wOScwMxnBtDTUEWhBEmS5FwROUph/I3M/DSFfFBRd/oCAJf1M0EAYD9r7alBgfFQRkSvBQB1LFXR76iFEoSI/hsA9vDAb06kwsxGIR9MdO5oUkT272eCIOKlIrK22yQZGxs7sFQqfSPABF3FzO7LfCGtaIL8DQC2UFhe+Dl3FtuMMWsR0a0eMAgEqftxqrU2xLeILBA+oE9td+FOn24UkS29FNwn9HdmXqzU0VS8MIKMjo7uMDIycqPS8COZ+d+VOlTi88kxSATpBZIQkUsx+izVBAHA7OzsjtPT0z/W6mkkXxhBiGgCAL6iMbpare5dqVSu1OjQyC4kx6ARpNskSZJkvYi8QjNHddlDmXkygJ4HqCiMIMaYdyPiKQqjN83MzGy/YcOGuxQ6vEUbkWMQCdJNkhDRO2tR3uoDAxF5j7X2Hd6T3UKwMIIQkQWAMYXRlzPzvgp5b9Fm5BhUgnSLJEmSvFREvuQ9UfcJFnaYUxhBkiS5SUSeqHD+XGZ+tULeS7QVOQaZIN0gCRG5S3TuMp2qIeIv0jR9kkpJE+FCCDI6OvqQkZGRPysNfjMzf1ipI5d4O3IMOkG6RJKbAWC7XBPVoPPs7OzW09PTf9HqWShfCEGSJNm7ll70co2x1Wp1tFKpbNDoyCObhRzDQJBOk4SIvg4A6hQ+Rd0ZKoQgxphjEfHjeR7QBX2rtUv5T7bWur8uhbes5BgWgnSSJETkQpFcSJKqichx1tpPqJQ0EC6EIETkDH2NwtgfMfNOCvnMonnIMUwE6RRJAmbc/CQzH5t54jN2LIQgxpgrEHGvjDY06sbMnCjkM4nmJcewEaQTJDHGHFDbHv1npglr0UlErrTW7q3Vs1C+EIIQkXtBf4jC2A8w81sV8m1FfcgxjAQpmiQrV67cevHixbcAwFZtJ611h78w89ZKHQ8QD06Qet3BmzSGisirrLWf0ehoJetLjmElSNEkIaKrAcBVNVa1crn8pMnJyV+olCwQDk4QInIfB91HQu8mIntaa10kcPCmIcfcg5LDKBcF4O6yuMOGm621f8wh27TrxMTEo2dnZ7cXEfezYx6dc0GXeWTm+opIIQGORPR5AFjtY9MCGcPMlQB67lURnCBJkrxDRP5VYeStzPwohXxTUS05tDaJyBdKpdIX0jS90EdXPdnBKwHgYB/5EDJFkCTAM7PZNUR8Z5qm7w7h55yO4AQhIhc0dojCyG8x834K+Yai3SbHAqMuF5Hzsm4jiehVAOBqyD8nNC4++kKTxBhzKCJ+2ceWBTIXMLMLkg3WiiCICzt+qsLCTzGzexiCtR4jx33LN+JnqtWq27Y0/N7jqgGLyMkiMh4MjECKQpLEGPNkRPxZANN+wsw7BNBz3xyFVLZixYrFS5cu/atGp4i8yVr7EY2O+bK9So55Nt6MiG9fmCHQ2V0qlU4SkcIuA2kxDkkSInIv19trbbr99tsfvHHjRndRL0gLuoIkSbKHiKherhHxJb579IWI9AE55pv81trNOJeFEpIkOV1ETgwywwUrCUUSIvpaiHcrRHx2mqZXhXI7NEGOEpFzFcbN3n333csuvPDC2xU6Nov2GTk224yI6+orRuF1L7T4zpcPQRIiOgMATtDahYhHp2l6nlbPnHxQggSIq7mhdjPs6Vrn+pEcWp+7La8lSYD4vTkIzmRmNdGKIohL4LVCMVkpM6teSCM5FOgrRTUkqUX1PrcW1RvievVGZt5f6cq94qFXEJeB/eG+xiHi+9M0fZuv/JxcJIkWwfzyGnLMjRYgRMmpuo2ZXcrbIC0YQVwal1qSOG3V0SOY+bMhPIskCYFiNh0hyOFGCpBHbe5d7vG1hOcuabq6BSPI2NjYi0qlktcX4jkvQqdviSRRPx9tFYQiR50gnwOAw9oO2qZDtVp9caVScWU31C0YQYjIFcnZfEzp2X7HzI/2lG0qFkkSGtH79IUkh9NqjDkFEUOEipzMzKeF8DwYQYwx6xFRk+PoMmbWvOBHkoR4IjLqCE2O+gqiDnR1elzMm7U2RPCjqvLs/aAkIleo0xXs9GruG0Capsd4CWcQiitJBpAydimCHG7oVatWbVMulzdlNKNVtx8w8zMD6AlDkLVr15auv/76WaVBb6xdePk3pY6W4pEkenSLIsecZcaYmxBRky5qs6rly5ePrF271pUfV7UgWyxjzC61QjfXqSwB2JeZVZlQsoyvJYl7QJqM42qZzDWHq/s/au5fZPGnhT0NxTX2FE0OZ3CAmpab/RaRXa21+pxbWSahXR8icqERmuPZmeXLl28RgvHtbHW/15Akb3Z3IroBAIqqcZIruYUroOPKH2TBaGGfTpCjPjenI2KIOLRXMvP5Pr7Olwm1gnwYEd+oMCbYnjGrDb4kyUuQ8fHxF1ar1Yuy2pWnX6lUOnhqasrllcrUfAnSKXI4J5IkOVpEPpXJoRadROQj1to3afUEIYg2+RciTqVpqrlk5YWDD0nyEqS+bXD3691NwJDts8x8RB6FPgTpJDmcL2NjYzuVSqUf5vGrSd+LmfmFWj2hCPJ/AKD5hvE+Zn671hkf+bwk8SFInSTunkyoux1/q53zPzivv3kJ0mlyzPljjPkTImozlPyWmbfNi9HC/mqCENEjAeB3SkPGmTlV6vAWz0MSBUFCJSZwfq5n5txfnPMQpFvkqP8x+S4AhCir9ihmvtX7wXCnLBrh+p7xQBFR1Zorl8vbTk5O/lZri0Y+K0l8CJIkyXNE5Nsa+x7wlw3xuWmafiePzqwE6SY5nD/GmPMR8fA8vjXqi4gvSNNUlZROTZBaBOa/1JLEaa7IBlkKtWDWJ+beWoTN9PkQJFTepwU2XcPMu+fxOwtBuk2O+h/dt4nIe/P41qSv+ttaCIJoX0CDxu9rQW23kuQliDHmCEQspM5i3gR77QjSC+So/6HyPo5eMP+5DzKCv4MYY65FxF0VD+Y5zKxJdK0YurFoK5LkJQgRuZoV2rSazXy8g5kzp3htRZBeIYdzdM2aNYs2bdp0t3ZiReQ6a62qSGiIFeQfAFBWOHNsLYr3kwr5QkSbkSQPQYjo/QBwciEG3qc0cx7jZgTpJXLMuUVELg3Qk5XYzTDzIo0OFUFCnFlXq9WdK5WKC3TsudaIJFkJkiTJdiLSkfomiLh9mqb/2w7ARgTpRXLU30MurGXIeVE7n9r9vlqtPr1SqbhoBq+mIkg9FeYXvUa+R+gfzPwghXzhogtJkpUgROSOralwA+8ZIFO5iIUE6VVyOIeIyAWuviEAfi9nZu9CoSqCJEnyPhHRlCn4fu37x84BQChUxXySZCEIEb0AAC4u1KgHKj+ImVset88nSC+To04Ql0L0K1oMtXkOVAQhoq8CwIsVTgTPpaqwpaXoHEkyEsSFSnSkQtY8o9umTJojSK+Tw/k0MTHx2JmZmRD3yi9k5pf4PhdagvwSAB7vPXgB2bh9bcki50hSS2u00Vq7sVl/Y8zrEPFjWfSF7iMix1trz2phm7uxucJa6/zo+UZErlzEQ5WG/oqZn+Crw5sgxpiHIaIqA2KtEu6B1tpv+hrfDTn3V7gZQSYmJh48MzNzBwCUumEbAFTL5fJWk5OTDfMjt7K9S/a2HDZJku+4WjFa20RkqW9tFm+CJEnyvNp24zKN8eVyeUmzydTo7ZasMeZMRDy+W+O7cUXkY9ZaddXYbvowNzYRuTtG6jSstTsw+6Vp+i0fn7wJEmAr8RtmfqyP0b0oQ0TLa2FE6htsgXzbhZmvD6Sra2qI6LUA0HTLmNWwdlvPVnq8CUJE6wDg1VmNbNDvUmZ+vkK+p0SNMRchovr+QQinROTr1tquVaEK4YPTMTo6uuvIyMi1AfR515zxJoh2f4iIZ6Vp2tXtSADgN6sgoiBHkqHsqes5tJYI3FX76utGRPPv+nv5gojfTdPUqzqXN0GIyBWozH1pZ85DEXmFtVbzkdELrCKEQhV/EZHNxU8R0QSw8+ZaGld1dpAAdqhUJEnyUxH5J5USgL8y8xIfHV4EGR8ff0q1WnXVW71buVzebnJy0h0T93ULmA3Q4bBLHYwg7zIi8g5r7Xv6GeAA39o2u18rnvrUqampn+bFwosgRJQAwFTeweb1v5uZt1DI94RokiTbishvAhlzOjO7uzUhwyzcavSYWkI+dyW6LxsRuTRL7wxgvNetVS+CJEmyVkTepTD6e7XgIXfq05FWu7DkvqQ+SUR2QMTQX7hDpEt1ZSN2YGb3ryOIS9/viqGGSOPf9KOmD/gicgMiOttuql3YcpEUhTZjzEGImDlzSzNjagnKTk3TNPcHUi+CBAjE+wozv7RQZAFg5cqVWy9evPgCAHCxUT3bROT11tr7fX03xhyPiGf2rNH3GHYNAJxYZMK/iYmJrWZmZtydGm3LFNC5cBBfgmhj9U9g5kInP0QovnZGssiLyNXW2j0a9TXGXIWIua7VZhmzgD6FnpgR0W0AsFRp98+ZOffLfm6CHHTQQVtuueWWLpzCu9XqiOwxNTV1tbeCDIJE9AMAUNc7zDCUqouIHGKtbfg+Z4wZR0S3AvZ8KzIqgohcwguvY9r5wN15551bXXzxxXfmATM3QULUkmPm3OPmcapPtifOpUlmPrSVb0TkQr7dd5Zeb/ceMoQ2NEmSj4vIsQH07lVLJpcru0zuBzVJkmNExPuKLCLekqbp4wI421RFwflwg5k+MjKy9wUXXNCycOUhhxyy1+zs7BXBBi1O0a+Z2Tuyu5VZxpjDENFVn1I1RHxNmqbn5FGSmyBE5GJjXIyMb7uEmQ/wFW4nNzo6usPIyMiN7fp1+/d5ggp7IQgyC16zs7PLp6env5elb54+SZK4E8if55Fp0vdsZn5dHj0+BHFRkfvmGWRB3/cy8ykK+ZaiRHRk7Y5KsELyBdl5a+3o0iV+uymL/voD4rYGLotlz7ba7uDVtd3BuUUYGCLkBAD+i5mfl8c+H4KoLrGELLDYyNEi81DlAbZVX5+lXru1DWV7Kz1583TlsYmIXOTGU/LINOj7J2Z+WB4duQgSIlNHuVx+2OTk5J/yGJmnLxG5WhzeWSzyjOXZ90xmPsFHlog+WqsD3st3PXaqfd/6kY9v7WSSJLlARMbb9Wv3+6wZYOb05CLI2NjYqlKpNN3OiGa/R8S/pWnqHeCYddxQwYNZx8vaDxE3pGk6mrV/o35JkkyLyCqNjoJkCw2ODJDidrPb1Wp1tFKpbMiKQS6CEJErUaAJfruemecC8rLamLtfLUbqnFqM1JrcggUKIOJ5teL2R4cYIkmSc0XkqBC6Qukougjr+Pj4ntVqNVey7ia+nVJLJpc5729egny5tn1peW7fBnDviyt5JnJiYuKhMzMz7l2pJ5qIvNRaq05hM98ZY8yhiOjmoyda0Vtn52SgF/VcYU55CaKtt3dE7Y6CppZh5ofBGHMsIn48s0ABHRHRRQucmKZpId8xkiTZGwDOEJGuhqOIyHHW2k8UAOH9VBKRC+Z8uHKcXHUdMxMkREJh35h8X0DGxsb2LJVKLqve9r46POUudRnd0zRVf9zKMn6SJIe7EyQA2D9L/4B9bq5Wqy+rVCqu4E3hjYi0nxg227hs2bIHrVu3zuWUbtsyE8QYs1v9L2Jbpc06FB1i0mjciYmJh8/Ozp4kIju6kPL6j7cPDQRdcrNfAYD71/1cxsyVkANk1UVEYwCwHwC4SAX3475sh45acKHuP0bEG0dGRk6bnJx0gYQdaaGSgbsV11rrIpHbtswEISL3F+rTbTU271BYKILCpijaRwhoT1HnuXokM2eq2ZKZIMYYVf1qRLRpmnYqmXMfTXs0NSsC9Ytkv8/av1k/ETnDWpspMXZmghCRy4CoSdPzFmb+kNa5KD/cCAQ6ycocD5iHIJtqSby28Z0eRNynqNMcX5uiXP8hQETuS717n9S03zPzsiwKMhEkRHKCbrygZwEg9ukvBIjIBaK6gFRVy5rMIhNBxsfHX1itVi9SWOSdl0gxZhQdQASMMUchojpiuFQqHTw1NdU2GUQmghDRmwHgg754I+KVaZq6j1qxRQRUCIyPj+9YrVZDBERmeifOShD3weswhWcfZmZHstgiAmoEAr2of56ZD29nTFaCuEzh3qXSSqUSTU1NbU6rGVtEQIsAEbmjXm3OsEy52bISRJtA+FHMfKsWmCgfEXAIEJELV/cuqzaHYpaDo7YEGR0d3XlkZERVayKLIXHqIwJZESAiV3ve1aBXtSx36NsShIhWA8DnfS0RkZ9Za7VXJX2Hj3IDiECI6mZ1WA5j5vWtIGpLkCRJThORtyhw/iwzH6GQj6IRgfshsGLFivLSpUszReO2fPgRP5im6UkqghDR1wDAu1qRiBxjrXXVqGKLCARDINBJ1kXMvFJLkFsA4DEKz57JzC4NaGwRgWAIaCuc1Q1pWyez5RZr1apV25TLZReD5d1qlXA7fYnH29Yo2D8IIKJLfpEpIreVVzMzM8s2bNjQNEK4JUFqN7hc9G5f1THvnymOlvYIAgfUksld0syWlgQxxpyIiKf3iCPRjIhAcARE5A3W2jO8CBIqcjK4V1FhRCAcAp9m5qYplFquIEmSXNXtjBnhcIiaIgIPRMDlWUjTtGEBI9e73TvI3wHgQRHYiMAAI9CyoGxTggQMKx5gbKNrg4BAqVR62tTUVMOSGU0J0muZ+wZhIqIPvYlAq8yXTQlCRC4Hr8vFG1tEYNARaFqzptUKMo2IvZhFfNAnK/rXYQREZIO1tmHW/VYryC+6kLKzw9DE4SICmxFoWrqhIUFWr1699V133VVYkZs4KRGBXkNgyZIlD12/fv2fF9rVkCBEtI+r59ZrTkR7IgIFIrAvM1+eiSBJkhwnImcXaExUHRHoKQQQ8bVpmj6gXEazFcTVQT+mpzyIxkQEikXgHGZ+TaYVhIhccfvnFmtP1B4R6CkEvs3Me2UiiDHmDkTc0tP8jZ5yUSwioEVgha8CEbnTWrtVJoIorzNuZOZ4Scp3pqKcNwLK5xYaZd9p9g6iyYMVCeI9xVFQg0AkiAa9KDvwCESCDPwURwc1CESCaNCLsgOPQCTIwE9xdFCDQCSIBr0oO/AIRIIM/BRHBzUIRIJo0IuyA49AJMjAT3F0UINAJIgGvSg78AhEggz8FEcHNQhEgmjQi7IDj0AkyMBPcXRQg0AkiAa9KDvwCESC9MEUG2Pe1SKlq4uSbpnu1Vq71tdNY4y7D+F+Fo7Tdty5MZXjz7d9/phz0eHtSv5ttNZ63yeKBPF9cjooR0SX1h9Sr1E1FYEdQRDRje/VRORULUEQ0f2B8Gqu2FIkiBd0/SMUCRIJ0u5pHeoLU31OkLXW2lPbTXCz37vtJSJ6bxHjCuKLfB/J9TlB4hZrwbMWr9wGJl8kSNxitXuk4hbrnpMkr9bll/S4xYoriNdzm1moz1eQSJBIkMzPulfHPidIfAeJBPF67jMLRYLEd5B2D0t8B+nfd5C4gsQVpB2/db+PK0hcQdo9QXEFiStIu2ek4e/jh0Iv2PpLKK4gcQVp98TGFSSuIO2ekbiCeCE0AEJxBYkrSLvHeKhXkPqdjHYYNf29JtxbO7Yzqp/Hj/dBvB+7KDgMCESCDMMsRx+9EYgE8YYuCg4DApEgwzDL0UdvBCJBvKGLgsOAQCTIMMxy9NEbgUgQb+ii4DAgEAkyDLMcffRGIBLEG7ooOAwIRIIMwyxHH70RiATxhi4KDgMCkSDDMMvRR28EIkG8oYuCw4BAJMgwzHL00RuBSBBv6KLgMCDQSYLcDQCLPEH1ru/gOV4UiwjMIeCd0RIA7mLmLRdC2Sw3728AYNuIe0RgWBAQkeustc/KSpDvA8AzhgWc6GdEAAC+xMwvz0oQVZWkCHdEoN8QaFZdq+EWK0mS40Tk7H5zMtobEVAgcAAzX5JpBRkfH9+xWq3+SDFYFI0I9BUCIrLUWvvHTARxnYjo2wDwnL7yMhobEfBAABGvTNN070aiTcvyGmPWIOI5HuNFkYhAXyEgIsdYa9flIkh9FbkaAHbrK2+jsRGBfAhcw8y7NxNpWdidiI4EgPPyjRd7RwT6CoFXMvP5XgSpryIVABjtK5ejsRGBbAh8kpmPbdW15QoyJ6iNcclma+wVEegoAt9k5gPbjZiJIE6JMWYton9i4naGxN9HBDqFgIgcb609K8t4mQlS326tBoA3xBf3LNDGPj2IgPt0cSYzfymrbbkIMqfUHQGXSqUjRWTPrAPFfhGBLiLwVQA4n5kn89rgRZC5QUZHR3cul8sHi8hKANgGAB5R/9c3VD6v/bF/RGA+An8FgNsQ8Q8ichsATCNiJU3Tm3xhUhHEd9AoFxHoFwQiQfplpqKdXUEgEqQrsMdB+wWBSJB+maloZ1cQiATpCuxx0H5BIBKkX2Yq2tkVBP4fgAtYjGElxAMAAAAASUVORK5CYII=;" vertex="1" parent="1">
          <mxGeometry x="-40" y="315" width="70" height="70" as="geometry" />
        </mxCell>
        <mxCell id="rij7Vu_CJ73uvpwCJqc9-3" value="" style="shape=image;verticalLabelPosition=bottom;labelBackgroundColor=default;verticalAlign=top;aspect=fixed;imageAspect=0;image=data:image/png,iVBORw0KGgoAAAANSUhEUgAAAOgAAADICAYAAADiBa1OAAAAAXNSR0IArs4c6QAAIABJREFUeF7tXQmYHFW1Pud2T09CMgFECKuEyCLBJNN1qyeEAAYVBQEXMCric+epbxMVUXFXcMX9ofiePFHEDZQXFIGHSARinOm61SEhCTvKIrIlQCAzTE/f8/q01WEyzExX1a3e7/m++rpn+p5zz/2rTtWte8+CYKmCQH9//y7pdHpuqVSaK4SYi4hztda7AcBOiNhLRDPGfwJALwDM4M/q/4P/8f+3/xa04S62AcAzEw9EfEZr/bQQYoyIqr+PcDv+m38nohEhxDARbUHEh4joISHEw1rrh5RSj9pT2LkIYOcO7dmRLVu2rG94ePgAIcQ8IpoHAPsDwAGIuCcR7QsA+7U5Dn8HgIcR8W8AsF5rfWcqlboNAG7L5/P8m6U2RaCjDDSbzS5IpVILiOhQRDyMiA5iQwSAXdv0/CSh9tNstER0ByJuIqJb+VMpdWsSwq2M+iLQlgaazWZ3F0IMAMAAER2GiAsA4ND6QtWR0jcS0SZE3ICIt2qtN/i+v64jR9qmg2p5A12wYMHsGTNmDCBiDhHZIHMdMCVt5cvlKQAoAEAeET2tdd73/TtbWeFO1q3lDHTRokWzMpnMSwBgORG9DACcTj4BbTK2rQDwJyK6Op1OrxwaGrqnTfRuezVbwkCllEeWL4BXAMBLAWBZ26Pa+QPgd9mrU6nU7/L5/O87f7jNG2HTDHRgYODgUqn0dgB4i52yNu8CSKBnXoS6ioj+t6en5zeDg4NPJiDTiggQaKiBLlq0aI+enh42SD6y9ix0HAKjRHQdAFw+Nja2ct26dQ933AgbPKCGGKjruqdord+FiMc3eHy2uyYigIg3aK3P933/l01Uo627rpuBZrPZ/VOp1D8T0TsAYK+2Rskqb4rAXwHgPwHgv5VST5gK6yb+xA00m80eLYT4eLDo001Y2rHWRmAYAC4SQpyXz+fvrt3ctkjMQKWUvAr7CQA4ysJqEaiBQBER/6tUKn22UCg8YtGaGgFjA5VSnoCInyEi1wJtEYiIAAcQnDdjxozzVq9ezXutliYgENtAc7ncflrrCwDgVRZVi4AhApuJ6FO+759vKKfj2CMb6IIFCzIzZ878SDkc6mMAMLPjELEDaiYCPi8qWn/gZ09BJAOVUi4BgIsBgKNEuoF42rUZAB4jos2IyHf6LQDwKCI+johbtNb8f/5O0wGCiGkiylQPAOgBgIwQovK/6t/8PwDYGQA4FG4PDokDgLkAsHs3AB6M8esA8EmlFE+Bu5pCG6iU8j/KYVvf6hC0OG7yPiK6XwjBn9XvD7DB9fT0bB4cHHyo1caay+XYWPl4PhHtrbXmwHKOZX1hcBzSajob6HM/Ip7ied6QgYy2Z61poEuXLp05Ojr6YwB4fZuNdisi3qa13gQAHPt4K8dCCiHuUEoV22wsYdXFXC63LxFVDLb6Oc6AdwkrqEXajSLiuz3P41lbV9K0BiqlfAEAXAkAL25hdHgauhERObbxFiKqfFdK3dvCOjdFNSnlXkS0WAixqOw72w8AiwDgsKYoE63T7yql/jUaS2e0ntJA+/v7D0qlUn8AAE4J0krERrgaAAaJaLBQKGxsJeXaUZdsNusi4kJE5Bsxh/ctbsEsFNcqpXivvatoUgN1XffFgdPzHi2Axl/KjvUrieiqmTNn/snulzXmjHD6GCHEcgA4AgA4PrfpN2oi+h/f99/VGARao5fnGKiU8kUcnNvkO+i1iHhVOaXJ7zzP4+RXlpqMAIcHjo2NsaG+rslBD2cqpb7WZDga1v1kBqoancWAiPLlu/T1RPR/hUKBw5UstTACUkpORXosLxwS0YkA0NDFJ0R8jed5V7QwRImptoOBSik/x/tPiUmfXhDnvflJsVj8iY0bbBDidehmxYoVqbvuuuvYcqbANwLAaxtkrI+VSqUD165d+3gdhtRSIrcbqOu6nJBrsM7acUIqdue6yKZ9rDPSTRLvOM7JiPjOctKxE+qswoVKqXfXuY+mix9voJwUammdNGJPnO9orb/VDXe9OmHYVmIXL168TzqdZkN9LwDsXSflj1JK3VQn2S0htmKgrusuI6J6DJTLEnypWCxesG7dOs5dY6nLEFi+fPmMrVu3ngEAZwNAX8LDH1JKsftpx1LFQB3HWYmIr05wlI8S0blz5sy5YNWqVVxnxFKXI7Bw4cJdM5nMuQDwvoShOLSTX5ewv79/XiqVSizPKSJePTo6+ja78JPwZdgh4qSUxwAAu44mta96jlKqUQubDT8LKKVcAQBJJXU6QynVKQ71DT8Z3dJhUMzqh+wMn8CY71VKcTGsjiQ20M8CwKcMR/eEEOL1NomxIYpdxi6l5JjiLyQw7P071feaDfTX7B1iAJJGxKM9z2P/WEsWgUgISCkvAYA3R2Ka0Fhr/fJOdXBhA91QnuJydbC49C2lFK/SWbIIREZg6dKlzxsdHeXIo1mRmQMGRHyv53nfj8vfynxsoPeX85XuE1dJRHyt53kr4/JbPotAArsI5ymlPtyJSLKBcnr+2Ok0ykHRp3qe9/NOBMeOqTEISCkvNUkIgIg/9DyPnSI6jowNFAB+qpQ6reOQsQNqCAJcbrKnp4dncbEd7q2B1j5VJyqlOPOCJYtAJASklD8o54cyivHsdAPl5FimgdnsBH98p/tFRrrybOOaCEgpzywvDn21ZsMaDTo5kJunuEkYKEPIvrYnKaWuNwXc8nc2Auyo8Mwzz1xERCcnMdJON1CjRaIJAHNu2P8plUpn2qiVJC69zpMRBGb8LMmizXaKG/06eYwLKSmluDSEJYsADAwM7FYqlT5fB2d5sE/Q+BfYBiHEv+bz+T/GF2E52xkBzqtcLBY/SERnAcCceozFPkENUSUiTkL2Xd/32a3LUhcgEARs8+osh5dxNvy6Uac/QZNaJApzAjizwoWc8sT3fc74bqnDEHBdlxOJcSqSVzZqaJ1uoEkuEkU5JzZpWBS0WrStlLKHiF4phHgjEXHQf12msdMN305x639x3IiIl6dSqUsHBwfZq8RSCyMQpN18FRGdFERCJZ3KJNLoO/0J2sgpbhjgOS/vFVrrVYVC4YYwDLZN/RHgd8qenh4OSzyBiI6rf4/he7AGGh6rerRcBQA3EtGqkZGRoY0bN7LXkqUGIJDNZpci4gmIyFXUsw3oMlYX1kBjwVY3pnUAcFO5/MDg2NjYmrVr195Rt566SDA7rWcymRwRcSGlpUTEZR52awcIrIG29lnaSkTrg/KDG/hzbGxsw8033/xAa6vdPO3YGNPptIOIDhFJRORShAubp5FZz9ZAzfBrFveTAFAt3suft5XLE2zqpmJMXN+ViA4sl9g4EBHnl0MDDwYALo51aLNOSj36tQZaD1SbK5NXiv8KAPyUvY+PciVnLrn+IBFx3Y/NhULhkeaqWLt3NkCt9R6IuJcQgg2Rq2ofEFTUPqS2hM5oYQ20M85jnFE8AQCbEZEdLDbzgYhbgs/K30KILaVSaUsqlRrRWvMx3NPTU/kcHh4eqbWoJaXcGQB2IiLOybNT9bsQYi4R7SGE2J2IOOMFhwTyOyF75fD3hu83xgGwETydbqDNclRoxLmzfXQBAp3uqGANtAsu4k4eYqcbqKmjAlc75gzh8zr5IrBjqxsCVxJRyaQ2UKdPcY0MVAgxkM/n867rvomIOEN9R60Q1u2y7HLBiMgJ08/xPK/guu65RMTVz2JRpxuo0RQXEZd4njcUIMspVE4FAC4nwauKliwCExHg5HIfU0qtr/4gpeTyD1wGIhZ1+hQ3SQPdDrDjOKcjIscDdnT9xlhXVPcxcQnKy7XWXy8UCt7E4VsDnfqCME4aVp3iTtUFlzcUQrwZEd9ip79dZ5lXIuIlo6OjV0xXwNlOcac30Lo8QSfrMpfLHaG1Ph0A3hDs+XXdFdsFA76bg/LHxsZ+ELZGrJTyiwDw0bjYdPoUN5FFoijgBvUheeX3dYj4CgCYEYXftm05BP5enh39ohzxsjJO2lX7BG2RJ+hkanDwL0fkI+KxAMDVl9lX1FJrIzBcTlQ+CADXE9GVvu9zDG9ssu+gLWygE1ULytEdDQDLAOBIADg89pm3jEkhwK9BnPhtNRHd5Pv+n5MSzHKsgbaRgU7xlD2SiDh4+IjAYOuaJS7Ji69NZa3lIHlE9IhotVLqrnqOwxpomxvoRPWz2ez+iHi4EEISERcf5mnxC+t5EXWobI6lvRUA+FifSqWGZs2aNbhq1SreFmkYSSm/BAAfiduhXSSaBrla2yxxQY/Dl81mFyPiIYjIcY/s0cQhV3zMjiOvg3i4gvVtRHQLAPDTcFOpVLqtVYLaTQ200z2JGr6K2+gLP5vN7p1Opw8qlUpsvGywbMAvGBe61WiVku6PF20eBIC/AcDdiHg7GyQbI7vSJd1Z0vKsgU4/xeUl8rlxQdda5ybzDokrrxl8nLFOCLEXAOycSqV2IaLZfCAiP3lnIWLfxP+N+73SBgCeF0N3ToBWPbg6HGeB2EZETyEi//1U8J3/fkpr/ZQQovIJAI8jIgeVP6iU4rjVtiVTAy0XYrpQKcXJsjuO6u5J1HGI1RhQf38/G/is3t7eWVrrWfxda11iw0qlUk+NjIw83dPT85RSalu3YTPVeE0NtNOnuA3zJLIXpEVgMgQcx/kyInJxpVjU6YtE1kBjXRaWKSkErIFO/w5qDTSpK83KiYWANVBroLEuHMvUGASsgVoDbcyVZnuJhYA10OkNtOP3QWNdNZapbggEYYdVf+vDAIBz+ZrSnUS0kZOTI+IGIlo7PmuDqfBm8fM2i30HbRb6XdDv0qVLZ46NjS3TWh8FAGyUnGFjZoOGzknJryaiq2fOnHnt6tWrtzao38S6Md4HJaKjfd+/MTGNrKC2RoATcSPiciLiSKRWi0ZaDQC/1VpfVSgUbm4HoI0NFAA+r5TibH6WuhgB13WzRMSJv1a0CQzsQXeJ1vo7hUKBy4C0JBlPcQFgqxDisHw+z9MJS12GgOM4xwVOBhxs346keRqMiOd7nncVAFArDSIJA+XxFDKZzLI1a9aw07alDkdgxYoVqbvuuutNZX/hD5ez9S3uoOFyFbxzlFI/BwA23KZTElPc6iCuzWQyb1qzZs3mpo/KKlA3BBzHOQoR/6vDU9Pcjojnep7347oBGVJwkgbKXf6NiN7j+/5vQ/Zvm7UJAgMDA7uVSqXzAODtbaJyEmpuAIB/j5MILYnOWUbSBlrRi4iuEEKc1U3FcpM6Ia0ox3Xd9xARZ3+PE1LXikOKqtNl5RC/M5uxmFQXAx03+h8Vi8WzwuZHjYqabV9fBLLZ7AIhBE9nOYGbJYAPKaW+3kggklokmk5nDkD+Cq+SKaUebeTgbF/xEOBUqADwufIK/YfiSehcLp4dIuJbGxUk3wgDHX+2LgmCa//QuaewvUcmpeRUMFfbMh3Tnsf7EPH144qG1e2kN9pAqwPhJFY/TqVSFw8NDXH+HEstgEA2m3WFEGycu7WAOi2vAhH9m+/759dT0WYZ6PgxscsV7ztdWu/8q/UEst1lu677aiJa2e7jaLT+RHSx7/tvrVe/9V4kiqr3LXyRIOIN6XT6z4ODg5xEy1KdEXAc5wxE/Eadu+lk8X46nX7N4ODg/UkPstUMdOL41iPidVrra3zf56mXpYQRkFLyFO1fEhbbjeL+prU+tlAobExy8K1uoOPHOsJ1QYKiPT6XJVBK8buspRgIBCu1vwSAE2KwW5bJEdiCiMcluXjUTgY6GSTsVqiIiJMzK0Rcp5TiMgaWpkEgl8vtySFXANBvgUocgaeFEK/N5/O/T0JyuxvoZBhwXRGeZqzj6Hqt9V8R8S8AcK9SirOvdw05jnOoEOIAInoRIs4nogMBgI+G1rEhol8hYr5cB5ZrsDSUiOgziMgeUO8AgL4GdT7Chb6SyOrfiQZa6xzciYh/JSLey+JPfrG/l/+eM2fOPY0uHFRL2al+5zKNIyMj+wkh9i1nVt8PAPYJylnw32yEvJ/ZTOJXkh+kUqlv5PP5u6WU15RLGHKx5kaTr5SSnNmhWCy+mYj+vUEROBxvusT0NYwN1Kj0Q6PRbkB/XHKBp86Plfe5HkXEyvfg4Gzw7Bk1LITg0Lph/s7/01qPpNPpyt98aK2Hn3nmmeGNGzdymYYKcWXxbdu2zchkMr1jY2O9WuveVCq1/bNUKvEdnjMSzAEAPrjsxPO01nOC/+0MAHsDABshe/u0InEKnfNTqdT5Q0NDjBvkcrnDtNZcuKkppLV+SaFQuKHauZSS37u/2gBnjA3pdPoIk92IbnyCNuUi6YZOEfELs2fP/vzEWYiU8r8BoJm1Uy5XSp088Rw4jnM66wwAz6/j+fk/pdQr48pvBUeFuLpbvhZBgPetieidkzmaBBXTuepabxPV1el0ev/J9ikXLVo0q6enh2uTst9xXWYl7Ivu+36s+qdJGOgqAFjeRPBt181D4CFE/IDneT+bSgXHcT6MiF9pnorbe/6aUurMqfQYGBg4oFQq/bpeK9uB7+6vouJgPMXlAr6I+GipVOKEUadHVcC2b08Eyln7fq+1XrF27drHpxuBlPLuhPLemgL1eF9f3161FgGllN8FgPeZdjYJP69duL7vc1qV0GT8BEXEJdWNWa6zmU6nPx0saadDa2EbthsCX1JKfbxW3p5gMSaJ7BpfLi/IxZoijgeWp+G+7/+wFtiu676eo67qsC2zqa+vb9GqVavGaulQ/T2RJ2g+n+c9ru3kOM6BiPhZAHhzWEVsu7ZAgAsJn+Z53hVhtHVd9yoiOi5M22na3KqUOlRKuaYcBne4oazKlksYGcE1fFnSWzK8KOV5Ht/cQlFdDLTaM28rDA8Pn1Iuyc6GemwojWyjVkXgbq31SWF9TYML/A7TwSDiuz3Pu9BxnJMRMfI73MT+x8/4aukWuEOyDzhnxU+MouhQVwMdPyIpJZeYf1fwntrsTfTEwO4SQew+eVSUjBhSSk4wZpqR4VGl1O5VjKWUd5XjiOcbYn6RUoq9ikJRsMrLRspZ8pOiO5RSB4cRlug7aJgOuY3ruscS0WnlfLqvAYBdwvLZdk1BgBd5jozqJiml5PQ2poHfn1NK8ZpGhaSU/wEA3zJFIZ1O7xzFeYCfpER0LbvvmfZd5UfET3ied24teQ17gk6liOM4L0VENlSeAh9aS2H7e0MReEBrvSxqNjvHcd6IiByEb0Ra630KhQLvoVaIX5lGRka4Gp9R8SVEfK/ned+PotyCBQtmz5w5kx3gufhTEsQ+44fUcgVsuoGOHynnXtVaH6O1PkIIcRQvSyeBhJURC4FHUqnUkXFS0kgprwOAl8bq9VmmlUqp106UIaX8QfCqFFs8hyp6npeLKiAwUi4UllQU0KRjHK9XSxnoRMDYwXl0dJRX7jjt49Lg2DUqsLZ9dAQQ0YkTjSGl5EiZO6P3uCMHER0/WZB+kDdph12DOH0R0WLf99dF5Q0cGjhNTyKRMYh4jOd57OwzKbW0gU6msZTyRcE043AikojI0+LZUYG27adF4P1KqW/HwchxnHMQMfQ2whR93KOUmnIxSEqpAMCJo1+VBxG/6XneB+LISGpFOej7WqXUlFE+TVkkigPKdDxLlizZt1QqHUpEbKxswIcEnxz5YSkaAlcqpU6MxvJsaynlPQAwLy5/wPcxpdSUsaNSSna8Zwd8E3pIKbVnXAFSSr6BceiaMU03W2m7J2gUNIIYwIUcqExEByEiGy4fvMRtn7rPBfOB0dHRhevXr98SBedqWyklL6D8OQ7veB6t9R6FQuGRqeQE+5McJmk0zaw1vaw1jiSe5EEfv1RKvXGy/jraQKcDeOHChbv29PTwHZT3Z/dCRP7cmYh2QUQ23tn8SUSzgguh8r9xR63zZ/o7r15ybCVfqJWDiCp/CyEeLpVKDyNi5SIue/cYOwSwnIlxk1EH4LruN4jojKh8E9r/TClV0wMtiWRnRPR93/ffG1ffJONcS6XSAWvXruXMHztQ1xpo3JMy7mmxU7FYnN3b2ztbaz1Laz2bg6+jyCWisXKNTQ4Q31YugrstnU4/3dvbu62WQ/f4PlzXPYuI2FfVlC5QShk5iScR/B/2JhHUjeHqYya0WSlltFeb4FT3i0qps62BmpzOFuSVUvKKqWmOoeFisTjPpMhVUDd0e9aCmFBx3qj9w/JKKdea+soi4is8z7s2bJ8T2/X39++SSqXYw8m08tuk78QdsUgUF9x253NddzkRXZ/AOD6tlOJiSbFJSsmLOkYRJ1FXVqWUnyrP8Dkow4S+rZR6v4kAKSXnFTYuAUFEp/i+zzGp28lOcU3OTJN5Xde9mIjeYqjGQ5lM5oA1a9ZwbqXYlNDT7EjP81aHVYKzFiKiaaLou5VSpjMQdkPkPdWFYXWfrB0iXu153vETDZQXHrY7JEftIIpnflTZtv3UCCxZsmTO2NgYn7tI770TJQYV0bkGaGzKZrN7CyEeiC3gH4x/V0rxthhFkSOlZEd+Xpk3oUNN8ylns9mjhRB/NFECAEqZTGaPNWvWcKK6CtkpriGizWIv7ze+rbzfeJFh/+zQvnc5+LpoIiehfcnvKaUil6BwXfdcInrO4krE8ZyplPpaRJ7nNE8oZvV95f3ZC8YbKDsf7xFXOU55MjFgO64syxceASnlTwCAI4JM6MtKqY+aCGBe13V/TkST7uOFlU1EL/N9P3LdWNd1s0Tkh+1nsnacvsX3feN45YRuVNcrpbb7MdsnqMmZbSKvlJJzAXGe3NiUSqUOieMMP7FDKSVn7I/tlcN5iOfPn7/HpZdeWoozmAS8l0b6+vr6oqQimUzPIHaUZyUz4owj4CEhxN75fJ4dMSpTXKMnKCJGerE3UNyyBghIKdkPlf1RYxMR/dH3feNsjAllTrhQKRU7b67rul8hog/HBuMfThpHFAoFTqtiRFLKHwGAUb1QRHyX53mcE8n8HZSI/tP3/UR8Eo2Q6SJmKSVPS79oMmREfJvneT82kcG8SUzrynVbTvA873dxdclms0uFEH+Kyx/wTev/G1Z2QltfP1JKvT0RA2UhWuvDwuaqCTtQ225qBKSU/K52jAFGTyilEslk4TjOjxHxnwx0eVopZewXLaVk10h214xFRHSV7/uvisU8gSmB1487lVIHVQ3UaIob6MYRDANRctYkAUS3ypBSRtqKmASnS5VSb0gCvwTy3l6jlDLN/MdPctOp5ZZyiJ2pN1AFUinl/wbpfGJDnE6n9xwcHHzI+B10nAbrhRAn5PP5+2JrZRlrIjAwMHBwqVS6rWbD6RvEjvccLzZIQfKkiS5EdJbv+1zIyIgcx3kHIlbe2+LSxBQrceU4jnMGIn4jLj/zEdHJvu9fbryKO0GJxwN3pcjL5SaD6SbesscOpwG53GTMWutcoVDwTGQwby6XO6Jc9j20589k/SW1yOi67iFEZFS8eaosDlFxSmgR7zO+7382aQMNjJ9+UfaK+KTv+8apL6KC0+ntHcc5GxFrZoObBocRpRSH0GlTrFzXfQ8Rbd9UjyFPZzKZ2aZuhtV+Td/9EPEjnuclUUdGBLqYxKtWwu7qYaDbzxOnz0+n0+cMDQ3xO6qlBBBIYFFmh41wE5Ucx/lOuS7PvxnICJ3pPUwfjuNwasyXh2k7RZtLlFKmvs0V0a7rXkFEJxnoopRSbl0NtKqcNVSD0zSBVUrJU9NQ5Qum6HWo7D99VRIaEREHVldWG2PSekTcIXojppwKG09RebHSQMb9iHihAf941mOI6GgDWdt4ppPkIlEYXS7jF3nP8xK5QMJ02GltpJQcdWLiqdJpkHTseDKZzG6NNtAqmA8R0U/Ld99LfN838ojp2LMzycCWL18+Y+vWrUZhYd2EV7uPNZVKzW/IFLcGUPx++mut9a8KhQInnDLd42v38zKl/tlsdnfOR9SxA7QD2wEBzvbXrCfoVKeCvUG4tN01xWLx2nXr1nG+HksBAkHSZK6VYqkLEOCsg61moDvAzmFAHGVeLgNxXT6f5/wzXU1SSo7Yj5wNvatBa+PBI+JrW2GKGxZCDq/iTfEby0vpN23bti2/cePG0bDMndDOdd1lRHRTJ4zFjqE2AlxXt50MdOKIOAsAe47cAgDryx5M67XWt0yWW7Q2FO3RwnGcV/KMoj20tVqaIlA10CSc5U11SZKfc8xycZtbiWgDIm4SQmzqBGcJ13VfQ0TsiG2pCxBo9ydo1FPE2xP8xOUscOxsfi8fRHRfu7gkOo5zXFJOBlHBs+2bgsBpLb1I1GBIePuCt3weQ8TNRMSZ1bZ/57+FEJu11pt7e3s3j8+8lpSeUsqdhRBzAIAz9s0RQvQhYuVvIuojokWI+M6k+rNyWhuBTp3iNhp13grixarnHOVsc6OIOMolHgBgJ0TkFJkTj4wt5NToU9Y2/Z3YzotEbYOyVdQiEAcBrlOTxBSXF2QWx1HA8lgELAJTI8BVwJMwUJlKpbaUSqWPld/hOJkyT9ksWQQsAoYIcElC4ykuEblVh/fFixfvk06nuZgNZyRLGepn2S0CXY3A8PBwr/ETdLLy3UGuVDbUmoVYu/oMNGfwg0k5OxARZ7Y/0GAY6xDRKH3LhL5P4AeGgT6JxYMSEWeHP8pAlwe5Vk2iT9CJyvC2ASKeorU+lR1/7VPV4HQlxIqIN3ie95IkxEkpv1cuehS7QjUADCmlliShC8tIIB1pYhkVpJS/BYATDMZ2o1Lq6Loa6Hjlcrncnlprzh7+rnLRn3kGiltWMwTGgjIHI2ZiKgbBFbm/ayCnqJTi4HPj/EiBgRqVw0g4J9ETJttniPhDz/PeaWygfONSSkUqXhP4lJ4a5A5NJIGywUXSdaxhy8zXAiaJrH5CiGwSkUoJZfU7zvf9a2qNu9bvSWT1q94s6vIOWmsA4393HIfn6q9DxJcBwKFReG3b2Ah8Sin1+djcAWMSeXEB4Ayl1LdMdXEc53RENKpzGpRi5EJQRuS67gcTBfF3AAAOuUlEQVSI6OsmQqo30aYb6PhBcMYARDwKEfkdaZlhciwTfDqat4zxdZ7nmWS/245PApnlVyqlONevESVQAvExpdTzjZQImB3HWYmIrzaR1dfXN3PVqlUjLWWgEwckpdyJiA4XQizVWi9DxKUAYKfEJmc+4OWEVEn4EydgGE8qpYzKKPKQpJRcrm+uATRXKqVONOCvsCY0q9i+eNbSBjoZWFLKF7HRAgAfDiIuAABOxGwpGgKJlH9IYKGItX6pUur6aOo/2zqJ6mZJlaBIqNrbNz3P+wCPsCmLRHFPxFR8uVxuP601v7++aNxxCL9TJN1XB8nboJR6sel4XNd9MQfLG8r5ulLqQ3FlSCnPA4DY/BVDQFzied5QXB2qfFJKrjHKD4/YNL4cY9s9QaOMeunSpTOLxeJCrfVBQoiDtNaHIOLBAMCHccm7KLq0aNvIK/BTzGq4qvRuBmO8Wyn1wrj8CVTYTqQEouM4hyIixxsbUSaT2alaDoMN1GjuntQyudGIYjAvXLhw13Q6vZcQYi4R7Y2IXFtyNyKajYhsvJVPIuLpM9fYqPxv3BGj11AsW7kkPB9EVIlHHfd9SzUulYjYndJocQURz/c8z6R0Q2VAjuNwQvJTQo1uikapVOqQoaGh26PKyOVy/VrrQlS+Ce0TKYGYRKVvzmg5vhxjRz9BDU/atOy8gFUsFmf39vbO1lrP0lrPTqVSHOv5HNJalzgutHoUi8XKdyHEaCqVGu3p6eGjyKt2YXXm7SlejQ3bfop2j/f19e0Vpd/J5Liu+1Yi4vqcJnS2Uipy1XApJW8XfcKkYyL6gO/73zSRwbzl9/Ek0gftsO1kDdT0rDSRX0rJtVj3NVTBeB+SZyOZTIaf9CZ0s1KqP6oAKSWnseH1hthERAeZpr1xHOefy7Ow78dWImDUWs8rFAp/rcoxXiQaH81iqpzlj4aA4zhfRsSzonE9p/WTmUzmANMtF9d1f09E7GwSm0ql0sFr1669I6yAhN757lFKzQ/b52TteDZVjuD6CwDsbiKH80D7vn/seBnWQE0QbTJvNptdIITYYKoGIm5f1o8rS0r5L+UL9Py4/AFfJA8nKSVPbY08opIYu+u655bT25xtOHauzvZG3/d/OdFAjebNk4WbmSpq+cMjIKVkP+hseI4pWx6olLorrhwpJS+ycekOE9qklOJ97VCUxNi11i8vFAqx3+WXLFmy79jYGD/1TSvObVFKPW/iwO07aKhLoXUbJeH3yaPjOp2e5xmtxLqu+yciYm+v2KS1PqJQKPBe4rSUy+UO40TltdrV+P1RpZTRtDSBgspVFb+klOKsJDuQneIanuFms/f39++SSqV4sch4X5eITvZ9P3YAtZTyzLJX11dNMOFiz77vc0jitCSl5Ok0T6tN6HtKqdgyEsxTPDY2Njbv5ptvfsAaqMnpbFHeJLYagqFtLZVKi+KWz+jv75+XSqU4t7AJPV0sFudOV9kuWJR5hFOZmnTEFbB9378xjowgvQ8/wZPwDf+pUoqzUzyHjB0Vwk5J4oBgecIhEGxz8NI8O1SYUkEp5cQVIqVkp4HI2yUT+jtdKfWDqXRIaEvjfqXUfnHH6TjOakQ8Ii7/BL4pPbrYQLne5AEGHSXidG3Qv2X9xyY554D6VBJgmHgYSSlZB9bFhNYqpaZc+JJScqrXRSYdlF8JzlNKfTiOjIS2t6pdX6+U4pjoSYkN9A8AwPmC4tI9M2bMWLx69Wp2UbPUJASSfBflIcR9H81ms/sLIXiaiyZQCCGW5fP5P02UkUTkSjC+WM4JCb53Voc2rT80Gyi7V33UBMwkVgBN+re8/0AgyadoOTpkKxEdU02pGgVjKSWnDXlFFJ5J2k76XialZJfCtxrKXq2UOjKqjCBy5wYA2DUq72TtEfEXnue9aTpZ6LruKUR0WQIdXj5//vwVl156aSkBWVZEDAQWLFgwe+bMmez6tk8M9slYnggWUiJV9XYc52RE/JWhDmNCiP3y+TwHc1RoyZIlXFSKi1xN6vMctj8ieofv+xeFbR/c/DiUkY3TaFtmXJ/FwHOKPZCmJAxWo+6Pouw0ba/VWp8+3pcwIblWTEgEXNc9noh+F7J5mGbsY7tcKRUp5lNKyU4L7LxgQp9WSn2uKiChPd8nMpnMXtVwrjDKBQnJ2Dj3CNM+ZJuvKaV4W2paqrwnSCnZk2LKF9VaQib+TkQf933/C1H5bPtkEHBd92Iieksy0ipSHiOio3zf3xRWZkLT7UeUUtuNQkrJK9UvCKvDFO0i7X0GSdh5K2ZPw37Hs/NT8zCl1LZaMisGWqfKzXcj4gc9z1tZSwn7e7IIDAwM7FYqlbhIsUkQ9USleN/xaKUUT6FrUpDlgoskG1F1OiqlXAEAO/ipxhS8KOxsIDBOfnKazgR2UJWTuHuetyqM/ttX2hK6O03W5x+01l8w8XcMMxDbZkcEXNc9lYh+mjAuTyLimzzPuyqMXNd1ryCik8K0naZNxT9XSqk4NtxQVujFIdd1jw3wSyTTX1VvIvq+7/uhs/GPN1DTLOG1sOM7+vnpdPpHg4ODT9ZqbH83R0BK+RsAMM5UN1ETRPyC53kfr6VhglsSXwaAj9Tqr9bvXLHa87yf1WrnOM6nEfEztdrF+P224eFhd+PGjU+F5d1hryqJmL4QHQ8TEecN/UlfX981q1at4urTluqAAOcZFkLwkye2x8xUapW3YP5IRCsKhQJPfaci3sbjPdH96zC8qCI39/X1zZ3uegvyMl8a5GWOKr9WezbKXNhXhKqwHQxUSsmPc15ST3TOPY3mWwDgYq5wFXZOXgsF+/uOCDiOswgRBxMIh5oM2s3l1C1ne543ZSYBx3HORsRzW+C8fFEpNWXMZjk3F087eWEzkT3OieON6/jxHG8PKSV7FbF3UaOJVwpXCiEuC/uO02gF27U/KSUnF4sdpRJi3Ox/+z6lFN8IdqDgpj/dUzaEePMmE1OJVCVms1lXCME3GNP32+mUnDSULMyoJnXHqtMCQxh9qm04eRYvbd8ohLghn8//MQqzbftcBKSU7HxeM4zLBDt+bSmVSh+cOO11HOdCRHyniWxD3suUUrwKvJ2CGweHxnF2xLqRqZfdlP6SjuO8nUug1U3z6IJvRMQ/A8BNpVJpTY13n+jSO5wj8DK6Oqh5U8/R8t7eBVrrrxUKhUqGhWCazQ7uTSEOIvd9n68dGBgYOLhUKr0fAPiGYZoFodZ4hjKZzPIoThETBU7r0Oy67nuI6IJaWjTpd47CGSSiIU4WPDY2tmGygNcm6daS3QaO7DwzSXzRaLIBc/B12S3vi5wxr0ELkM9Ro1ooKpjm83vmKxt0cnhxbEApxUm9Y1PNiAPXdV9PRPwkNY7Yj61leEbevmGXtI2IuElrzcetcQOQw3fb2i15w51L1SMil3o4PkmvsZAjv4yICk1aLLqEV0+DagIh1TVu9mCpVHpJlAyFU/VY00CDKQqntOdFBqP8o8bDji9gGABuIyL2grlVCHFf+Z3o3lKp9EBvb+9fTKYg8VVKjpMDtnt7e/fQWrNbHBviQUGtVT5ftuZqclCHkfQAES03zbNb7SiUgXJjLqv2zDPPXMTLxWG0bLM2XDqd8/o8yKUVgnILjxLRFiEEry5v1lpvTqVSm0ul0uZ6vf8G+3A7I+KcIFM9p9PYWWs9h/8HAHOIaB9EZEOsHklFrrTZKWtJde9PpVJHDw0NmaZ92T640AZa5ZBSvrm8V8QVkRN1gWpJuKdXanwNlVqeUT2IyCFSUx0z23D8VuUdEbgjnU6/dHBwMKnIsIr0yAbKTByXVywWz0VEzogm7JmyCHQ5AoOjo6PHr1+/nh1vEqVYBlrVIKgsxau8SxLVygqzCLQJAmGyIpgMxchAqx07jnMiInIafmuoJmfD8rYbAucopT5ZT6UTMdCqgq7rLiciVjix4O96Dt7KtgjERIB3BE6Lk68pan+JGug4Qx0AgPcS0akN8NaIOmbb3iJggkDdn5rjlauLgVY74K2ZkZGRfwKA0xNIZmwCquW1CJgisEFrfVqhUGioy2JdDXQ8IrlcLlcqld6KiOy0PNcULctvEWggAg19ajbsCToVgLlc7git9esAgI21FYJ5G3iu27orDjrW7DDR1qMIr/xGIcRp+Xx+bXiWZFs27Ak6jbH2l0ql1yAiVxZeluzwrLQ6IMDO3+wyuS8AzKuD/FYQeVPZW+u7YdKj1FvZphvo+AEuWrRoViaTOZpLURDRyxMqTFtvDLtF/sPlJNYcyH99Op1eNTQ0dLvjOG/hjAqd4u/L4ZWI+O1mPjEnXkwtZaATleN6I0KIo4QQhxMRRyQcnlAFr24xKpNx3k9EvhBildb6Ot/3p8wu7zjOSYGh8vlpN+LM9d8rFosXrFu3jrPWtxS1tIFOhlR/f/9BQohsUPpNAsBCdihvKVTbS5lHEdEjIg7R26i13jAyMnJLlMxz1eG6rpsNgine0ODwrqiIb0HEK7XWvzYpWBy10zjt285AJxvkkiVL5o6NjS1AxMOIaAEfiLggwToacbBtRR5+WnCWP4WIqlgsqnoFuUsp+cbJi4BsrK0QprihXEThN0KI3+Tzec6uwItdLU8dYaBToSyl3FkIcUA54JxXiucT0Tw+EJEXN/jotNXIe4joXkTkiArO6n4fEXHo09+01veuXbuWw+oaTvxk1VqfEmyxHdwoBYjo94j421QqdUWSIWCN0p/76WgDrQUkO1IMDw/PFULM1VrPRUTen+XqVZx2lGtxcOkETsPIU2g+Gm3QHGjOxYseC+qjbOb4VADgWNW/ExG/J96XyWTuGxwcfKjWeFvh92w2u3cqlVpMRIuIqJ9nPcFrSlz1OO8RJ0W/EwBu50+t9e2FQmFjXIGtxNfVBhrnRHCondZ6ZyKqGu1OWuteIUQvEfUi4gz+DL5X4j8RsUREbGycUIsTd/N3/tyWSqVG+G8+tNbDvb29ld+6Lfu+67oDWuvnAcBMROT42J2q34mIk3s9TUQcd8vHE+VQx4czmcymds+GUesa/H/pFsNuAJZ5lQAAAABJRU5ErkJggg==;" vertex="1" parent="1">
          <mxGeometry x="174.4" y="230" width="81.2" height="70" as="geometry" />
        </mxCell>
        <mxCell id="rij7Vu_CJ73uvpwCJqc9-4" value="" style="shape=image;verticalLabelPosition=bottom;labelBackgroundColor=default;verticalAlign=top;aspect=fixed;imageAspect=0;image=data:image/png,iVBORw0KGgoAAAANSUhEUgAAAMgAAADICAYAAACtWK6eAAAAAXNSR0IArs4c6QAAIABJREFUeF7tnQn4fls1x1eoVHQNkVRIIYVmFHVpUBpUqK4GFEqlkFIiurq5jdI8UUkjwm3gduvqVkooKjOlQaRBpkSuofP5t8/t3Nc5511r7bX3Oe979nqe9/n/nue/zx7WPuvstdfwXReQRo0DjQOTHLhA403jQOPANAeagLS3o3FghgNNQNrr0TjQBKS9A40DPg60E8THt/bURjjQBGQjG92W6eNAExAf39pTG+FAE5CNbHRbpo8DTUB8fGtPbYQDTUA2stFtmT4ONAHx8a09tREONAGpv9GfISInzfyY0b/M/P65/pS3O2ITkNi9v7CIXE5EvlBEviD9y9/979Ii8smZQ/6PiPydiLxr4vcOEfmvzDHa44kDTUDyXoXPFJHri8g3pN+VRWRpnv6fiLy1m8856fcaEflQ3jK3+/TSm3lonP+sJBAnr0gg9vGwCcw+Ds38fxOQ/czjvnA7EbmDiFx3BSfE/hnPt/hfEXmViDxHRH5VRD6c2+ExP98EZHx3uUvcIgnFTUXkQkf6EvyniLw4CcuZInLuka7TvawmIOdnHarTd4vIt4vIp7m5epgPYh37lc6g8EwR+d3DXEL8rJuAfPx0+I7OrPrDInKVeBYfZI+/LyI/m1QwrGabpS0LyGeLyD3S7/M2+wbML/xvReRxIvL05JfZHJu2KCBXSqfFHUXkUze3474Fc5FH9fo5EfkbXxeH+dSWBORSIvJIEbn9EViilnrbULd+XkR+QkQ+uNQkao67BQHhlLi/iPyoiFy0JnOPeCxCYU4Vkcd3wvLfR7zOxb2+pXnLafEwEbls6YE22v9fJXX1N491/cd6glxDRJ4oIl9zrBu3snWdLSJ37/xGf72yeWVP59gE5FM6p97PdN7h+7Z7Rva7Ye0AJ+MDO//Ro6wPrrn9MQkIUbS/LCLXXDPDB3MjgJDYLg1Z2mr6K9nmLBHBQviBkoPU6vtYBOQ7ReQJIvLptRjnHIfAwZcka9pXd/N9tLKfB3RxYKgxWI++5QBOx/cl5ysxXwdNhy4ghIP8gojc9gB2Af0co8Eb01x/xKCO/FgyNvAoJ+TzRORLVr5mPgZ8AJj7wVq6DllAuIgTO4RqtXZ6iIj85M4kCW0hnENDQwHp22Nm3e1T01ftNnwQbtPFuL2z9sAR4x2qgPAlfm4EAxR9/FvSp79Y0XasybeJyK+N/Md9DCrWmIDQ5a26+LFfd84Lj/jnVFJLCYQkABQ18aDoEAUEKxUvTGkiDJzQCjzGBO9Zw1L+VURuJiK/MzHR3BOk7/Y6nTn7t7rT6OJGhvxHMoNfQkR+KN1tjF2Ym/NReIz5qQUfOCQBwQv+/AobyRindfeaP0v78ocicjXjHv2jiFxv0MfY4xEnSN8vqb4IIoAQFkL9uVZ64CtF5EFJHbL0YW37rC6X/s7Wh5ZqfygCgiccb+1XFGIUl0gE46c7E+XbBmMgKD9uHPOjIvL1g8v41OPeS/pUf9cWkVeLyAWN82XNPzV45suStYwUgFyAiamp/EHHn5t3kdTvN861evNDEJCv7b7gZ4jI5xbiDmZXXtZdLzAv3OsdY54iIi9UPBelYg2HIi2YVForEXGAGjmkL01GBNTEEvT3SUj+qETnUX2uXUDI8OMuYNWvNfxBvUDNee1EYwTmCpqOBm3wUzxU+Qx6v1Yfn7qkjw3FiYCqZCHUSdS0MQKxhXle1dKhsi1Bjwjg65Ttqzdbs4CgprzCcTnex8R3p8jeua/8vVKi0L6+hv+PCmj52pY4Qfr5vLIT/BtYJi8i3y8iT515htOJwM/LGPvd1/wjaa5v2Ndwif9fq4BwccQLe7FgppAZd28RAaxgivDGA8oG5pWWCKsgEcuSI1FSQMiQ5FSwrIG541OaQznBMfvkFEqi5Y2mHWN+o+LepukrtM0aBeTqSTgi1SpMrlhOxvwRuwzlK0n+iIW+WURABbFQSQFhHh4fye6FfWo935VCeyKBLfCVYPn7YwsTS7ddm4DwFeZOoA3i0/AHiwmhKBpPLtYyVDALkbP9g5YHUtvSAsIwZP99j2Fu+EYuLyLvVTzD/QxcrUigC07ir1tT2PyaBISXE0tKJIDCI4ynwS8Z1Yf3dHFRWHt4saxUQ0BQF9+ePOba+aGG3lXbON3VuLNFETwlkFMjpFFjTvazFgHBhAsWkzecY2yBWnNr/yxfzqEPRMN8TibiwTxUyoq1OxcinX/ROEFAtjHDaskzxlzffyEiqK2aU187R1e7NQgIHnIAlgk+jKB/SPb1Nxk7IwMRGCAtMWfM0F6qJSDMDwuRJbuSpKf7GRcW7a8CpR6Ve86gYpyivfkaBMSq1sytEqcTHlrL14/+CNrjaNdCjBLKzebxpfNStCd9bh74MAiZ0e43AZqcIvxroc8XkZcHRjw8rVO17maZQHRbLcOix+37A+YTvKUIAu6fY9nzxbE61yI2rsYdZMhX64UdSx53OCuhEbwsod9bnx1rT8jLCyI68vSxpIB8uYjwxQcoOoIoGoNnHFXJQhdJBWm0PgME8Is6kAKy5nKo5gnCPJkz0QHk7WuIOClOEWuyExd2VDTtabxvLjgSsZRZ74f7+lX9/1ICggPwzY5QDs2i8HVwMmnVA6vXHPA5MLZyqfYJwnyJpMWHoaW7GE54/FZoA9+q7dzQDqcnzmOEpSotJSAcmdTcKEVYP3CUvUUxAPcIIlg1xOlBqAXh7LkUGe6unQsm6b/UNk6e7T4cfu4x7jgkbnFKlSLSjAl3qUpLCAiXrqdUWuW++CKSjSyBco9NyUUR01/iBGHeIL+QAqslcmE47acIHhN+UoMsJ1rIfGoLCMUs/1xE0PtrEdHA3zsBQ4NKgDqmISozUZiTApoRVPsO0s+ZnBpLOAcfM0DhdgnLH/4VDCO1iJitKwbuwd551xYQT5Tp3kUoGqAS3XMnT4M4Ii6iWmHlyxupFi51gsAucmAwh2uIlxJH7jBaAD48KTgkSDMX2mAh085d2+dku5oCQrDgM7JnnNfB8DSxqnpUs43EeVrqBIGDvGAIiZY4gYFX4tTAXAw215LEXYQ7SXGqJSCXTE41a870kAH/HhT+3p8mvKCaCyhzwMQYjUO15AnCmjBTa7M08cQDYBF1auTuJXuIYSXCWDIrZLUE5KXGZKKxSfPVgyH0RXWommTJ6NPOa8kThDniBLSGk2jXNtWO/WMfOYk4zXMI2CcgTotSDQHBLv6izFUMY4Mws8JcK9JIzhSIMM51DO6Ov/QJwmUXg0ktIjYO0zshPRCoi5i6c4gKxEAeFaMaAoLVhxgdL4HUQV70LgFOUMMuTtrvN3knP/Pc0gLC1H4vhZYXWN75unz2hIOS3B9Sq71EKL8VN8A0VmkBoQwBnmcvYWX6qpmvt9UL7pkHnmc2OJrWICA1fBhESE/5STiZMTkDXueluf69fZ73XEkBOSnF8+dczHFokbU2R4A548WNBhPox6TfKN/HcB1rEBD8UqVyLsjMRKXaB+tD3g6YZF4il551FAlDKSkgntzuIZMsKCFc2jH7lVCFmNNvpDij3IvlWgQEMy1md17gEoSvggs0eeYaQo29oabhRBtAvAEID6dSAkJFWcCRrXi2/QJxSmHGo063hQiNBsMJs3IJYsPJICSHZQpPSztu7RPkul367Z1SmEnOqT63PtJkyc+3ZlmSSfqnGe8LzkziwMLNvqUExJp7sMt0omW9dxeiSk9POE+fpH1bHe1ASsFxSHQAX0BLECDDlTbzktDFV5kfRo6SxYUoD03FWwDr5mCD5tgM6F7OKcD4QDqFUgkBwaFG9VMv8SWJwOAFPojLIQAANYivJw41MvdYA5fPuRyGyBOEKF3Ap0FHxPwNbGqpU3SXl4BmE6v1JwFMxiqVg0tArJxV65iddgkBwePqgcHpJwo6YWRZYXTthxuRPQL2+kQXhMe/NaUAY5Eb/viqY0XSEGEenFR4voc/EpqWqslI7j8nPepmFFFLZZ9RZm4sSmNYwcarCgjpljjUvIBiqCzEPEUTFjWqOREu3SifA8TUATqhTUqzjAi6DQAQHsKihZc+jKJPkBy7OkAIqFZ9XY6wRaaOgOjRoK5Hj3uM/RHNS3RzCbLm6OzOAUOEB+F+dC3RAoI6gS7sIXILtLkZnv45QdD7G+VzAF5iZChFqFmoWx6iZAXojCEUKSBgRIEs4iFODy5npZxWzCnn6Pas6ZifgZd86UsR0ROadOmp8dFEMJRkU6SAWFM5h5OnQE4ppxXjgOSBb0WL6JHN2CPv4NyUesC/pQh8La/jlzuSBZN4cg1RAoJlJSfala8RX6VSBKqgtv4E68AawhEP2vgWCJRIIq6xAGlzRDCfAwxeiiiH8NvOzvkYEueFryqLogQk53I+LCSZtZiZhy0wn+Sb3CL1RRAd5Yv5YZYtVbOv1Lqn+gXrCnUYXR/B6OuaWPJ2MOWDbF+SULNQtzwUknUYJSBndeggN/KsIn2pNXU7nN2feMwCM0RBS5AWd4mSDCT78MM7rQWay5l35LMfSh5/4qQQhH8a6Zy1P1g5aI2EJT5M1rCVfvo8h+UyiyIEhBAGmO35uvLlIlekpC4Lg0gMIkFIQ5wevEBzBN/w1N+4U91ukjzXa7vfgDSJRQddnh/QPRhD5oggRu6DGsJz7rVYavqnDRV7ca56YsdQs3gOPrgpQkBywBgILMzNKtu3eOKxEEBtXBYhGtbyxMBsEu6BEBJk2f/L35GVssbWSgAlcWAA4PFv/zcwo9YPDx8rbWg/8VfAxvJvScqJzLh1isR2zy9CQAgB73V260TCzHEzA1twoEgHpZBPJBGKT59EOBNxyt/88BZrs+F42TEyEGfED3M4CPb8PaYq5cyfEBJtHBcfhd3y2Tljjz1r2b/d5wmDoXaJm3IFBPXKaymgmpSlZoV3kRYPOsJ+S+9AxucekKKONY+VAI2YGpc7CrneGsr+QmsGSRConvoxlJn2qGfnTStXQAg58ELT74MFVfJubzMunVw+NURQIy9uDVqrgFgiDh5oEPIcnpJWa0Xt78fDl0I6gotyBYQ6Gd/nGJnLIlYgJLw0WcIWeoC00nOif04F/C0aqnmCWEz2tQClCUC03gt7vpLZCv9clCsgWDLIQbBSLfWKeRH8SC0SDZF1R35DDVqrgBBNfbaSAVjGasEvkWfjGSurVF6OgOTcP07tNkBrb1fu1WQzLDlaE6zHguWd31oFBJAKbdIR909SCWoQp63nJMDcyxytFr0Ta8oREFC9vYlNWHDAZCpNlqOZVNGSaam7a12rgDBPEr20lb/I/QFKtDRxunMaeMgdFpMjIOQPk0dsJcySeKVrEIVd9sHO9POoqfYx5lov6cwN1YmyZxrC52PNx9f0O9aGBC1PMh6hRtR2MVOOgBBIRkCZlWpd7JgX6bv7vOL9/ENCEwzMWLOAWHxbN8gIKjSw60RT4sY8Jd7cpSu8AoJXmmPVA+sD8gQIFDUIMAEQyTWEx7ZmQtWaVayndo7Iu2qYlpLcSHarQeTAY4q3EtEBLmBBr4DkeDfJ9iJGqAadZkjiJ0MOH0AtWvMJAnzPWMDmGG9q+UIYm9MK8AoPuQDIvQKCB9UbgQuww7BakWex2mf4smlDDWrX417zCUKyEdhmGuKEpnpXDcIr7g2tcX2YvQJiqdA6ZBxRtQCa1SILpCUo45aCnrlrWPMJQpTymcoFAsvKB7MWvSvVirSOBxQqIfom8goIX42xwo77Bq95QWcuWLCwZGmInPh3aBoGtVnzCUIYOwAcGsKxigm2FiGQnni5qTyf2Xl7BYSiJeRBWKm2nm9B6qtlz+95tuYTBIcpUb0aAkHSm/Wn6X+3DUDVOJqt9KwE2G16zisghDhrQ7WHE8JER6mCWgSYscbnQolnT8JXzjrWfIJgndTeE0ukCMzxFVXJg+YI2LgZY8ArIOQ0e14oYDIpxVWLSObRJEplh0U7FrRmAWE5Wt7VjkDwetRdpl6PgJD049XVa8Y6XcyANE7sEcDHNWntAkL0rBbGk48lp3ANYp+4qFuJCHIyP/m4q8kjIMS1eOKomBgT3JcXrZ78noaW9NEoRHnL3NcuICD0a0tfg/4SXptjgpm8s5xunneXSlRUvlKTZxDgbwCZtlLxgos7EyLEXYvzWxopcIxXaxcQMK+0yPHcR9nfWuQ19ZpTvD0CQjomaZlW4jIHjH8t4gTRJnNRDctz8ctZC34XPMMaIj+jVp5KPx+Kl6JOa+gpmcCBmjGGbdhXT+VkcxS5R0BysIqsjGjtGwciOWBOv/UICKEbtYLTIpnT+mocAE7WFCLlERBLznLbksaBNXGA8hqmj7tHQLxxWGtiVJvLNjlwLxF5gmXpHgHJrUZqmV9r2zgQyQFzaL5HQBjkoZGzbn01DlTiAOUdtFBLJ6bkERBg78m+a9Q4cGgcMJds8AgI4GpPPzTOtPk2DoiIGRjQIyBk3pHX0ahx4NA4cIq10rFHQCw1JA6NgW2+x80BTe2X83HAIyDexHnCjbV5zhHbRLkBLTIH0cnPjhjU0MfaQ01wCF9OuR4wmt+rbBvRDFXp0o6OiCN8teU5j4AQz+IpuMlLSFprLaJ4DUVlNETtjWtrGga2WXNGIcuEJ9ryFDXB45gb75I2Tmy4ZWaERY+AWPKVh5OrHe4OzIv2q1YbTAK+rF1ALGXrXJA6zo8N7yxl1bR4y8NhAAxhXWryCEhOyeeajLSkjVKtyXNkqxk90nDtAsLHhf3SUM2EKVRn9stDVPuimKmaPAJC5x/pEO4uoh7lEw2vlaoFOR51PaJNGwUl0oP56ppUemjtAqLdY4CuPe+Cl3eWmvfDMVxI9F4BARLGU+G0NmjD+zroUU48DdX8CjKfNQsIefza4pygn/BVr0XedAvqi5jLuHkFxItNBPZtTS88qOMUmtQQFa+oGFuL1iwgpNB+QMmI2ve3+4rII5VzGzZzgZN7BcRSx244SUypZKrVIkoaoNZpCKsXedi1aM0CwmWWPH0N1bYA4qTGWW0lV/1Jr4D8gBOhvUbx+SHjKPBDoR8NUcrhHE3DoDZrFpAbGgpfvkREcB7XIkz3fMysRJqu2Q/nFRBvXjrQMFRx4gJYg2AIQMwaulMHhvccTcOgNmsWkDt3MEjPUK6TUgkk0dWgi2cUfkXotbUXz1uLV0AsTrhdxrlQtp3cB49VWwvx/iLyCOc4nsfWLCCEhVM6QkPkB9VKf+CUp3CTh3AsmvG0vAKClQMYeiTaSu5yWNaBUqgJXzgNPa5bE+HQtWjNAgJKyd2UjOC0Afe2BnkL6IDZheHBTF4BYaCXd4VwQImw0guclyzrOLS3FBqlnvptPIM4n1mzgHCvuLlyXS7VRdn3bjNwnW/lePYM53OuhKl+fl6U7ZpFPEEdf4uSoa2I5ycYZfFz1YzD8hbxdKvPOScIpweniIcIDMQ8WJos9nyXpzVjAWs+QSxloMFArmF0ub7nkp32B8BrF/BejoBw/+A00KCn775H1L/jAl2DCGy7oHIgvO5aB5myy8lmaxUQ8GvfqVxcTVR8nIM4Ca1EkCyhMCbQ6n6QHAGhD9QXT/GUmuoM+Lzg9GqoZhm2tQrIjUTkLA2zOv+HK3xD2fduM3xoV3Y8m4W7nCsgT3bawEF4J7SDL1Bp4vINop6G7iIiz9Q0DGizVgGxOIHxG+E/Kk0WpP7duTzaefKc6CdXQLD6UKTdQ2T71QB/wA+iVedO73INgDWqQWsVEMzdAKxpCIT6h2kaZrYhhs9bohunNiUDXZQrIISIY1nwEDVGyE4sTbcTEUzLGgK3VXvaaPqba7NWAbGY7wkxwSRcmixq8nAu2YaXXAFhMi/uyqqRDO8hc4aXYxBqQlBoUkNcTrV52Jr+aEONxMsOfiRmcREmr0FboIaakHxQ8AST209FrP5nSgBSTFpb15GuLt/Voad0REm6WrrreMbIrqocISAAAnv1do5NKt+WpAuLCAlR2pqKFKu33o2wkhFWj0+AMBx+/d8nlVxcCtEnrJ8fgXz9vwjVucaxLeXNsA7C29IElu49nYOQO/Ii57MnHosQEMy9fMW0L+BwvphU+aJaN9K6Zks5MbzvZ+4ZAL5dvQOvuHH64dfRmpKtc/e25wV+XfJVsR6Nw/TWhvIA1KCHByUJnvKOeD4yVOklxVZbrXd0HRECQseYBTEPeihbyhWDkizDOBqaCr5DVUKVvFnndCK8AivcIdEH02WVFADuGfiwdgn/1IOUi6KMANpDScoxAoWEDkUJyD26iqhPdHKKWnjAsZQkSxbaMG4HxyGXdoTrZOcpWXJd3r5xmhEVi/qBYQLhgSz5M+w5Zv6SZKmTuDuPO0QggEYJiAViZ4yhpR1010nqhmYzQfPAa4u6QYjCFggwNQSF01Nb+hn1CjWrFHnroTMf1CreSaxYWRQlIEyCrxGgDB4qnZWGLstFfW33BA+v1vAMLyAm/pK10V+a1FnPeikWC/piNkUKSE4wGZ51wkGwwJQiS356qTkcS78E/pU8XbEIYpHzvp+EpGhLgM/uiXcCU51a0Ph2+6AMM3iwpQg0lZoJUaXWsYZ+H9WdyPcrOJHndwICEruHsNyhsodQtIBY4njGFgDWFkFpJaiVbYjjKtYlrEQlKMcxyHxCLuf9wqIFBEAGwNq8SHtYVkCPjybmRdAayBaN8jlAGjOWwQ/nd/X/euAEwKjiofd3lrVLeh6ceiZaQBjnSZ2Q3D1jklnBZSPjYqsnoC6Uccb1gT4IIjk/QjMIaQG8gnxuDRGpwIsD8AAI+YTD8NNi52rGsLbhQ4iahWocRbcUEUAJvfSQznBApmsYlRAQLts5FyQAy4ifyqWrJmGtWdaAOCY81vzgATFg/MYy7iKCFS+a8nFQTYlru4qIoKIQLlOLEFxgfyJUY0vEw9j6LpNi1cLWXkJAmBwIijl5AuZyvQOOYH6kkimOLE/4i4W5hNigFr4yeae1mXiMESEgU3MliJDIBn5YF0sLDDi+hMnjR/Gm31q8+GPrLhLXV0pALGmbU5vMSaQtgNP3wUX8MYXVKczFqAEIBZ5eL5UUkN05ETkMhgCIICXjp3Cy3ttxgbeAa4zxm5QL1M/oyGa3nVnzUnApvo+m4UQbS1ouujh6+k0yxpt79FVJKHCGEm4eQTUFZDhfInYJn0FYrhexkJE+cPxyv0Ll1NCbk3qoaTvWpljiVqkThEUQScmF1AMu1zMBAeNEmCM2Gs8pwYQlyIXIp5jIUgIynBoX/rcr5uppQhQuBhLiu+aI4EjUKy9RTAeVEiSWcCopIEyWu0QOLCWLvuYE0jh3jceKCHnkJQlsXy1OrWUeaxAQeMfHpSRh1STnZ+wFxpCCmuopp9bP2Vz73LLY0gJCGTQurjkmVhJ/0FGHDCaHhBB7LDel6bWFVJE1CAiqI5VfSxMqFHk2mLt7wgKHxdJTjLPvA6sXd9ViMWGlBYSFWHLCpzZqGHzGV4ck/Jo+gBKppUsLCCZR0nZr0XuSkPTm4Od29Vhunzm4uayzdbwaAsKcchKq+jURKUwFKKI8+frUpHAHVGEzr4Y3ubq/ZozdNlib2Ec0gFzAa0pbFI+MqCUgMIRIXWAqvURYQ0ShTTzA+EjAa9UmavGlxfoTSUufIO9OQBKaNWFRJBqB+0TEyU3qQc67gDmZvH8voo5mzSfa1BIQxsrJOlQvaKYheiobjEkQYQOXS1sagW6JEfPWphib1pICYsVV7qszEdPWO2E9kLMR+0gfIM+/LKqzuX5qCgjz4MIbFopsYBBh+NRGHDr2OI04TbTqGgB53KeiaEkBsZQRIDmK1ONhYCInL/fCiJAgKz+j92F2/NoCQiJMyaSoscVSdGWqKirIjpbMs8hCn0sJyBW6kHAsg1qCR5y2Y4SaWgNZsR8boAneoT6HXrsGd7vaAsJEqTC1z/nnXtDgQTzeIP8BsDxF1qL0kUgeSwmINdqaKsFvnOEhfio85xF3k337TgQAufPVaAkBYXEsElCEUvSaZC3RhDpYYS0JM7cEJU6tcQkBQVVCrdSSNrIaoAfUNkL4SxGC7QWQc89pKQHhsgciBv6FaOJ0ssSAWY0HUVVdlxAQa3176hQ+zbBBj+/UH7JKo6kGSN3onJcSECaDB5SFR8FXfjRdxF9o3B2yH1HHtEBwIBbi/cXUmEO1BQTHILFxWmQXYql4hvVaiDQHfBQXsjw00xbjAMYAc4XaiPGXFBDmj2Up12HU84GwCcx/nnwES7loxgMkL/dLWVtArAYJSkFj0rUSVkFMsFEhLKjiOVmG1vmfr/3SAsJkrBs3t2BOJISECE8LcXoQJ6T96pEgRHxYTuZkTQFhrsRDafcb0y7O3TF40jm+UugGWNMo8y/BqBh1FiMtw0pOkIBG/CNYQyKISygYutZkJiuKOGiEOV/JmgLy+u7FtaQee7LzsAhSCgNDQASFwvd4J7QGAWHu+BeoJae9B2jWSyAc+Epa8uRG5MDf1BKQOzqAFQirsQQyArVDObYoQgOguJJlDlFjn6+ftQgIk+IEsX719zHFCnAGQgcvlJaIUMVx5YHYryEgRAvgFLT4KOYcg2N8sVrG9vGWOyTAE4SyL05rEhCYYamwqmUeQndbpe/Ck0vv1ZNrCAgmWkvEK4KO6V1jocMjT2m7a2g3QtkOVfANyrbFm61NQFiwRyXYxyiiR8kM1JiAPfW4Cf57xb5J7Px/aQEhFRnnnYW09etRqThpvACBU3Na1GI1Nqk1CgjzBBgZa0j0BvBFBZ93Ln+Zakb4Cyw57ljAwKayxAiVFBCsSSQmWe50rIHTY85MjsqGMQPzfCQRtg480VxIS+R46r7WKiAsAAsRCf/RQoLDiWShOURAT7wYiVyWYqYlBQRIIiuEax/SPvXygFJC4hjm30iihgcVu6LvnyFzXLOAsEC+Krx40UJC33ytOE0wgY4RMKHWfGle+ocrd6aUgACSYa31zmn2GPQyAAAEMklEQVTDCThGfKhAxge1MZrwktP/m6I7jupv7QLCOskfwTObAx80xy8CJwmJ34W/IfCOOhhWIqVUo/uXEBBvZAIWxN2XFOsc2GY4XksQ6dMUQSVbcbV0CAIC89gsLsHRaa/9xlCzDzs+X9+3DXbr9JQ7btlALEHY8N+656FoAcH6g/NSG2vVT+/BnYf91MFc8UkBAE1yWCnoVky4oJyUrrFu2bfRtociIEz+EkndwmNbknAunjYIIyF8BSQVC+HNx9Awl5gUKSCoR4T4WzF4UTPJ94Dog7sZzs+SRNQEdzVrLfqSc5rs+5AEpF8Eplr8GqWJuw9mTzYStHZCYixELgpfyanLZ5SAoApizLCqoJx0CD5WO06MUqrUkGelq4hZ9kfV9hAFhIV5VB8VQ0YaEQLDy0fdOythMkVVQdh2KUJAyLDzVnriYo5/qPSJ3K9b62Ox8rho+0MVEJiC2ZGw8xIWrmimo7KhvgwpV0Dok5D0tRMfCZy0eN0Pjg5ZQGA2AYYwvtej17wBIKtQpLR3hnkFBIsT9VdIOFs7EZFLSYrFgw69jDp0AenXnQuS7eWf5zmSf7CW4cjTIoIgTGenAjUAUax934hUoJgOgYyU+D5YWjujLYzFkcVpckXLQwu25RJPiQgNURjGEvqi6bNUG/wpxNNZix+Vmk9Wv8ckIDCCjEB0c+D2l0T+y9qUA30YXxLGEy7j/H0UdGwC0m8KpwkX+JIwNEfxAgQtAgclhTyP4tQY8uRYBaRfI04vwtfJ82gUzwEcodRLJ9X2KOnYBYRNw8GHygVodQ6i+FG+AM5F4TwlspfKtuc6+ziIx7YgIP1GXCpF2nKB3NK6I19E0FzAvMJCZcl9iZxD1b62+KIQjMeJAsCZNXyk6uasaDDC0qkiTNj76gMMI/m2RQHp+YeJ9e4J79UCahDJ/7X3RZEd4ETJxCSxaXO0ZQHpNxvT8CkJz7dEUtAhvlSAJoBxTF141KrNUhOQ82/9yUn1IsAwotzbIb1YoCg+L0HBri43fClGNgEZ5zyA2oR/c6G/qQGSdKl99I5LyPsZIkLF2TOPycHnZcjuc01A9nMSZBD8KQgL6b+HzjNUJuK6EArSjYel1fZzY2MtDn2za28XhWIAGeh/V6o9Acd4FC8l4eucwW+TF24H7w7+a+hZc+QzaxQYBAIkd8I/eqFoAuHc9XaCOBk38Rh3F3JUCG0Z+wHolhtESSAgmMDge439KA931N7t2C2b760JSE1uf3wsgBXIA5/60YZQDn5A4/R/D/+tP+uNjtgEZKMb35at40ATEB2fWquNcqAJyEY3vi1bx4EmIDo+tVYb5UATkI1ufFu2jgNNQHR8aq02yoEmIBvd+LZsHQeagOj41FptlANNQDa68W3ZOg40AdHxqbXaKAeagGx049uydRxoAqLjU2u1UQ58DC9ukCM/Jt32AAAAAElFTkSuQmCC;" vertex="1" parent="1">
          <mxGeometry x="560" y="323" width="80" height="80" as="geometry" />
        </mxCell>
        <mxCell id="rij7Vu_CJ73uvpwCJqc9-5" value="" style="shape=image;verticalLabelPosition=bottom;labelBackgroundColor=default;verticalAlign=top;aspect=fixed;imageAspect=0;image=data:image/png,iVBORw0KGgoAAAANSUhEUgAAAMgAAADICAYAAACtWK6eAAAAAXNSR0IArs4c6QAAEXxJREFUeF7tXQesLVUVXUQTe41iwRgrVsQK2KIoWAA7yrfFDmjsCnxRgyQ2wF4DiooVUKyAUbBgBURUsGIv2HsvKN7131zefffPndl7z5l61k5ufuDt09Y+a/Y5M/vssw0kQkAIrERgG2EjBITAagREEM0OIVCBgAii6SEERBDNASEQQ0AeJIabSmWCgAiSiaE1zBgCIkgMN5XKBAERpD9DXx7AnQHsCOAWAP4N4AsAzil+f+2va2p5joAI0u1cuDiA5wG4/YwM96ho+ucA3gTgSAC/6LaLam0RARGku/mwJ4DnFuSwtjonyuEA/m4tJL10CIgg6bCsqulgAC9q0NRnATwTwFkN6lDRAAIiSAA0Z5H9AbzRWaZM/XcFSd6eoC5VYURABDECFVTbBOA9wbKrih0GYHPiOlXdCgREkPamxqUAnF68oUrdykcKb/K91BWrvo0IiCDtzYgDAfBp35acN3vDtR+AT7fVgOoFRJB2ZsGlAXACb9dO9RfV+k8A9xZJ2kNZBGkH21sBOLudqktr3VUkaQdtEaQdXNvYnNf19GYAvlmnpL/7EBBBfHhZtV8A4BCrckI9kSQhmKxKBEkMaFEdl1dcZnmEb7x28RQo0f0ugMcUsVx/aViXiosgrcyB6P7jJoXX4fIshXwHwGkATgXwRQA/S1FpbnXIg6S3eGR59WcAVyi68sIiZit1z14NgL8fpq54yvWJIGmtezkA3wZwTWe1nytC3+fFHgzgeGcdFvVfA3gygPdalKWjPUjqORDxHuwDQ0eWPyq2RRK29xCRxGZ6eRAbTlat8wPe44KZt7gpAG6wl2XnIlzF2r5Vjxv43QCcaS2Qq54IksbyPB24N4CjA9VxKbVPRbkrA2Akb2r5JIDdAfwvdcVTqk8EiVuTE/epxatZnhAkSSJyHwAn1hS8BgAenkotPIh1UOpKp1SfCBKz5lMKctwgVvyiUozKva+xjj0AnGTU9ahxr/M+T4GcdEUQn7XpNd7qmNR1tVu8x2IdPLLL18AphSHzXGr9KGWlU6lLBLFbkt7inQC4cU4hHu+x2B6f9g9K0YGFOo4F8NDEdU6iOhHEbsaTi9Bye4lqTa/3mNd2PQCfaSGUnkeDmUVFsoCACGKbDg8vvIdNu14r6j3mNVcdxmKaIG7qvfK12R7ndrOv+P/xFpyyvghisy4DCVMtrdhi1HvMe1t1nJeb/g/bhrWV1tMAvCZYdpLFRJB6s/5ylpXkavVqZo2jiqOy5gIrFB9fJJdb/PO7Zx8c6e2i8VzfKrzI35p2birlRZBqS74DwCMSGpsRtUw3muqN0admJwnvutC/ewL4ePHf/Jdvp7xyAICXeQtNVV8EWW1Zpgb9WGLDM1Dw9QnrfCCAE4r6ngHgVQt13wYAv5Z7P2D+oPAiv0/Yz9FWJYKUm47fO7jc2DahZfkWjOlHUwsDJHn2oyz/VvS7CfMHN8kEmXqMvdUngpRDz33CE4JW4fLpOiVlubRiWHuXQu/BFww8jOURLgV3UuJshbuXTZqHAXiXZzYt6DJH1THF1/bFKvg05lPZItxo8zUtPwimWI49ceYJ32BpeElneckWqGL8ReRBNtqQp/qYKHqHoGnnr295am/uRb5UPI0tVS6fJ3lbccbcUrZKh57rjs5KPlGExDuLTUtdBNloz5c0yHu7+MR9NICXz+piYjcGA/JiHIuUHbj6enFlQpMLdRhOz3ASr/B8/Ve9haakL4KsW/PGxcY8Yl9edrNvpOBSGS6FuCQqE3oAK9HKyjOk3vuS4PktBEcmgKm7KkSQdayfA+DFAegZosHTeb8NlF0uwuXdnSrqYRxWNOkCv+fwu45HmA3lDp4CU9MVQdYteoZjr7A4D/hU5ivcFPLHhewmZfX9o9jbMPmCV3j927mzpRY9pVX+O3tRcFUAf7AWmJqeCLJm0bsX+aO89uWe4VBvoRX6vMiT3qhOGMnLw1ORcJBIUonFr/N1fZvc30WQNZPyCzQD9TzCj3M8apvq6coQDx6BtcgHZtkT+RXdKwxk/JCzUNb7EBFkbbZw6XFz58R5UqKr1ebNMsMIw82twrtB+EHTI1cMELppaL6nf4PTFUHW7ii3LG0WjfeNIvduqrMTkfPmX54le7htYEZ9BcAtHeU4Vu/Dw1H9sFVFEODZAI5wmomZQKzLIUvVPOfObydeiXgRXgL6SEdDi2lRHcWmoSqCrEXsMnLXKky6tj0AnhNJIfzizo+BlwlUFvEikQBGRhiQKNmJCAJc6LR66hAMnuBjGqGoMNmC5ys5Ez540/xke+9I7gS5eiBileEoB0dn81K5JoGR86q8X/F5p6H3u00fkciJIG5WTe4EidzlwVN6vHOjqTAfL8M/rtuwIua1uqGjjkgCCm7qvS8yHF0armruBIk8TVNhxn0Hly4phNHHrM8iXM55EzNcHwBPGmYnqYw9VuB4XdlbnJ2/EgCGhDSRlORgP55eXI5j6VPkazrDTVLEmln6Nyid3AkSCVDkkqhJ0oUPArhf4lngOTfC/L787uKRSwL4l6fAVHRzJ0hkudHkjESTo7xVc85zKOs3AK7imMC/AsCXGVlK7gSJ3OK06yzVDo/WeuW44mYnbzmLPgMXL2tQ3DFwAIrpgxiwmKXkThC+vmR0rEciX9GZAMIbN+XpE3UtS79IP5gji4GUWUruBGHG9rKrz6omw/ud2dV5oScPQvGwU5vCQ1v8iFklH51lObmXsxOPC7zIcDYxXPXcCcJlCUNHPMJ7CK/lKND0S7m1KX4hJ3lXCWO9GPPlFZ5w/Ly30FT0cycI7ch4pls7DWoNEmROX54bmd+B7mzGpf7YCgIw2TWPz3IP4pVsX/ESKBEE4LkOb/4pa5BgWYJp7wS16lflsYq8zma73uWkta+j0RNBgO0AMJOgVyxehNcQMFdWF8Kjv/wIuCw8RciJfrFAJxiWwkR22YoIsmZ6RsNWXcVcNkGYQIFh8qvSiTa5mZbHYr0fExkVwA+Gi8J4Ly6tvAmsWQezp7A8c3tlKyLImukjKXFYjlcz0wOVyV4AeFzVK4x54psjXm3gkbLvM3yhwLdoEVnlkSJ1jbaMCLJuOj5pdwlYctX5kEjME5t/QBHr5SUIN+DnLPS/SbwXic/jvLzOLWsRQdbNz2OoPI4aEZZ71FLByP6DIeUMLeelOF6C8NUzPcYlitD0G0UGUpSR9yiAEEE2ziJ6g7sFJxb3MYyqZewSZfn2J0u184npJQiDJ7lf4O8sS0MVOszwcpdA9pOGzQ6zuAiy0S6LNzZFLMYlDsMyGL8UIcjcE3GZVfXRb7lvjA3jBn15kx4ZA19WHB8pOMUyIsjWVuXE5ARtIiQJc1AxQYJH+EaM8WH86He0oyD7HEkkt9zEmxtcHOTo7nhURZCtbcXQ7tOKzCVNLMlE0Z70Omxr/lbsWT1cpPn9IgXrj5sMemplRZByi/JtFt9qdS1/KjwPL/t8bceN87tL9H71jrvaXXMiyGqsN624GLNN68wv+mQShvPabGipbktUQIfdGU5TIki1LTbPXpsyzU9Xsvh69ewivWnbbXOfFLkXpe1+DaJ+EaTeDPsnTlJd1SI32szcTnkFAAYgtim6qLMGXRHENv0iR3NtNa9r8cs3z7tfUPwvXt3MK9f4NqwN4Xn817VR8ZTqFEHs1mybJHw1zOOtixLJo2sZETNDdrl0tPRpkDoiiM8sJAnPlqd+qjPcnt5jOfcU0+3Qi/BvKYRXt5F0/N4hMSAgghhAWlJhrNQhs+wg9/cXLS3BrOmMJl4V+bvtLGKY+Xd5rqOJ8BUuyWHNwNikrcmUFUHipmTcFYnSxJswhopBjpbMKk027XpTFbSzCBIErijWxJvwXhKmEPIkheZlo8wIzx+XX1XC9KiMzTomkAurGSoTKi2CpDEmz57TE1TdcT5viVeavdIZa7XcS35I5HFYfvHnRaLzE4M/nZ1E5BVr/JEcTVKkpkFm5LWIIGkNuHdBFN4axb0Df5yk8x/jnLhUSn1bE7OycAMeOVufFoGJ1SaCTMygGk5aBESQtHiqtokhIIJMzKAaTloERJC0eKq2iSEggkzMoBpOWgREkLR4qraJITBEgjAjYZOUNRMzUVbDYaLvQeXiGgpBmJqf2QRJDGYTl+SLAK+II1GYtCJFlpZGSA6BIKfM8tvy8heJEFhGgPfR81763qRvgvBJsX1vo1fDY0CAZ/N7W3L3SRBv7qcxGFN9bAeB3q6B64sgTLR8uiEitR24VevYEOAVDAzM9EQ+JxljXwSR90hivqwq6cWL9EWQwwAcmJV5NdimCBxenJ9pWo+rfF8EOSFRLlnXYKU8agR6uS+xL4JEMp+P2rrqfGMEmMGet2h1KiJIp3CrsQYIiCANwFPR6SMggkzfxhphAwREkArwCA4TO09BvHcPdr7u7ghkpkziVXNWEUFqCDKFieK9e5CQlF3vbJ1UQ9bzvqgRQUSQUgREkDVYRBARRAQZ2hwYy2veXp4eLaxPtMRaB1VLrIoJNgpwRJAWEBBBTKCKICaYtihpD6I9SO1s0RKrFqLRKYziIak9SLfzSnsQLbFMM24UTw/TSHxKIogIYpoxIogJJu1BFmDqZZmtJZZ9oqbQlAeRBzHNI3kQE0zyIPIgtonSi3u1dc2lJQ8iD2KaMPIgJpjkQeRBbBNFHsSG05i0RvGQHNMmXedBxjT96/uq8yAVGHmfHvVwS2PqCPSyihiLB5m68TW+egREkHqMpJExAiJIxsbX0OsREEHqMZJGxgiIIBkbX0OvR0AEqcdIGhkjIIJkbHwNvR4BEaQeI2lkjIAIkrHxNfR6BESQeoykkTECIkjGxtfQ6xEQQSow6ip59VQTSw9xXApWrJjw3mDFLp4eUz3MNNRxDXEObDVlxxKsKILUL0FWaYggcewggqyDN9SJ1MC8W4oOdVzyIFpiNZ3bScqLIA1glAeRBymbPl3kA5YHkQdp8OhKV1QepAGW8iDyIPIgFQQSQUQQEUQEMfnYoS5FTJ2vUBrquLQH0R6k6dxOUl4EaQCjllhaYmmJpSWW6REy1CetqfNaYjWFqby8PIg8iDyIPIjp6SIPsg6TPhQWWMiDyIPIg8iDyIOYEJAH2QqmsXgQp32lPkEEujjyIIJMcOLkMiQRJBdLa5whBESQEGwqlAsCIkgultY4QwiIICHYVCgXBESQXCytcYYQEEFCsKlQLgiIILlYWuMMISCChGBToVwQEEFysbTGGUJABAnBpkK5ICCCVFia4Jw2kZnApM0eOdSjnEj3QmBL1s02/+XxAv6sIoLUEIRnFMYuUz1zErGLkjZUoDYKcCJWrykjgqwDNIo5MJZw917cqwjSAgIiiAnUUTw9TCPxKcmDiCCmGSOCmGDaotTF+XB7b9JpjmIOaImVzuCWmuRB5EEs8wSjeHqYRuJTEkFEENOMEUFMMGmJtQBTLy9qtMSyT9QUmvIg8iCmeSQPYoJJHkQexDZRenGvtq65tORB5EFME0YexASTPIg8iG2iyIPYcBqT1igektqkdzultMTSEss040bx9DCNxKckgoggphkjgphg0h5EexDbROEeZCriOSTEMU9p7Ms29GDRyz50LHuQqZBD44gjIILEsVPJDBAQQTIwsoYYRyArgpwEYI84ViqZIQInA9iz63H3tQc5HMABXQ9W7Y0agSMAHNj1CPoiyL4Ajux6sGpv1AjsB+CorkfQF0F2A3BK14NVe6NGYHcAp3Y9gr4IwnEeC2Cfrges9kaJwHEANvXR8z4JwvEyc59ECNQh0Ns87a3hApEdAJwI4Np1COnvWSLwEwB7ATi3r9H3TZD5uA8C8NK+QFC7g0RgM4DD+u7ZUAhCHLYDsHPx26lvYNR+LwicCeCM4nd+Lz1YanRIBBkCHuqDENiAgAiiCSEEKhAQQTQ9hIAIojkgBGIIyIPEcFOpTBAQQTIxtIYZQ0AEieGmUpkgIIJkYmgNM4bA/wEbgnz2aVAIFQAAAABJRU5ErkJggg==;" vertex="1" parent="1">
          <mxGeometry x="367" y="328" width="80" height="80" as="geometry" />
        </mxCell>
        <mxCell id="rij7Vu_CJ73uvpwCJqc9-6" value="" style="shape=image;verticalLabelPosition=bottom;labelBackgroundColor=default;verticalAlign=top;aspect=fixed;imageAspect=0;image=data:image/png,iVBORw0KGgoAAAANSUhEUgAAAMgAAADICAYAAACtWK6eAAAAAXNSR0IArs4c6QAAF51JREFUeF7tnQn4fsd0x7+WElvETqyJNpZQUtQWqkSJEkWEhiC2aFFqCxpb7CIpgtppLBFJW4QWQREERVG7ElUVSyLEUjv3k9738fb9z9z33jsz95577znP83v+T/K7M3PmnPn+5syZM+ecQ04uAZdAVALncNm4BFwCcQk4QHx1uAQaJOAA8eXhEnCA+BpwCfSTgO8g/eTmrRYiAQfIQhTt0+wnAQdIP7l5q4VIwAGyEEX7NPtJwAHST27eaiEScIAsRNE+zX4ScID0k5u3WogEHCALUbRPs58EHCD95OatFiIBB8hCFO3T7CcBB0g/uXmrhUjAAbIQRfs0+0nAAdJPbt5qIRJwgCxE0T7NfhJwgOwot4tLuoGk60vaZe3n3JK+Kum/6n8/Kelz/cTuraYiAQfI/2nqOpIOlPSHkvbuoLyPSzpB0kmSPtqhnX86EQksHSAA4/71T6rKjpf0t5JOSe3I29uRwJIBcpSkvy6gCkBC318v0LflLi8qaT9JV5L035KOlfRjywy34W2JAOFc8bb6jNFGRn2++aKkQyS9p0/jCbYBGM+twbFi/yxJx0h6vqQvTHBOZ7O8NIDcSNIHBlLWTyTtuxCQ/Gs1z5tF5Hq6pCMkPWsguWcdZkkAubqkz2SVXrvO/njmILmGpP9oIQrOaAe0+M7UJ0sByFjgWCkb+/xMU5rPxwym5Itadjc5kCwBIIDjDZL2bKnEEp9xFmEnmSO9WtLdO0zsJfX5rEOT8T5dAkC6KrCUNvBsPbxU5yP2+xVJu3UcH+/hczq2GeXzuQME78qbRpFseNDbSXqLIX5SWSHa4EM9O7m2JKIRTNPcAdLkXRlDMSfWdwVjjF1izIdJOrJnx9wX0d40zRkgB9V+eGsKmNMu8g+S7thTwGdIYhcxfaE6Z4BwML9zT+WVbDaXXeRcVYjONyRdMkFYfynp7xLaF286V4DsVLtV+dca/ahaFJeSxL9TpptLelfiBNiB9k/so2jzuQLkrnUsUFHhJXR+a0lvT2hvoenjJB2eyAh3Q9wRmaW5AoQD4EPNSl16iiQW2JSJeLZbZZiA6TVomrkE4f+TpD9LaF+66dQvDi9UXfadVsVYXSCDoEyvQdPMJQj/32sPSUIXRZt+orqf2avoCGU7xxP35kxDmF6DpplLUAC2LWHtVomnu11vny3N5RmSDs3AEMGjBDuapbkC5H8lWfRgrRbC96r3Excxuyq2M3Zyx6fJsR7NBy/OFSDYx5ferudRv5iq7HFRI98c/D+p0sATR9XClsFzTNLi/Mg2clWLjNU8TdnEyulC55HVew3rKctfAYvzI3ECqXus0pS9WEdLelAGwf5KErfxpmmuO8jLJd3bsORfVeXXOtgwf02skeoohweOW/h9rMtgrgC5m6TXGBa+eds7IjsylpyaSa6HSXpqpr6KdTNXgPxelQiOzCJWiVeOU8zKeB9JL8sk1BtL+mCmvop1M1eAIDASCVj0sX/Y+PmoabG9IpNp+DNJ5y22qjN2PGeA4D58QkZZ5eqKGCxisaZI5LfaIwPjBGoSsGme5gyQy9T5cnc1pIWfSiI3FwfdqVHOzDCPlvTMKQhgzgBB/tZ2EUI0HjOFhRHgEdcuLt4cxFv2j+ToqHQfcwcIuwiZFC3EPX25egNyQ0nfKa3UQv0flynxGw/FLliIx+zdzh0gCMyKy/eB1fPUF2bX4HAd8nb8shmGI6sL0cCToCUABEWM/YCKd9e8v54qXVfSv2Vi/hEJmVAysdC+m6UABIm8ozK3btleNNm+fGvlLLhttt7G6ehRGQ/V1GSZjJNiSQBhafGX/AEDrrEpx1ytiwmz6E8zyO37xt/p7DDFpQEEAQzl2XpIlZDgeRkWlYUucj1Ao7DOFSxMqC0PSwTICiTkh925raA6fMcioKwbSQ3mQDfNHJJOMg2K7UyClgoQlMPFF6kviS/KRWQup6JSm3oZucYs3U/uHffnldPkwtWTXV59mqclA2SlHFLX3LN2Pfb1zwMMfj5mXuPdGSyR33gyF6YOkN8uGMBBqqDb10GOhHbH3rWzQ7x/7edr3dfdJFqcR9IPq7D03ynA7VWMR1yfPWUHSLPmedcOUH5RJaIj0cLqh/9eAhFQ+C+FJjqJR2MOkELan0m3FN58ZMG5cC/1zoL9J3ftAEkW4aw7IKDwegVnaD7s3QFSUPsT7xpPEyZlacKLyEMskzQngNxC0uWrJ6GXq6N3d88o8e9WhSr/swp8/FL9LzfkcycK41CeIAfhCYsVMSW7Im9kzsoxUO4+pg4QDtAUyeGnpCmwKXcuAynQg/08lwvBzTlyn0MEciqx8NENrxFjxF0LiSzM0ZQBcoSkv8iUYTxFMVRrRblDmCMpfHZty192LlNTaXXOeFrDYzGzOXqnChCE/iepmsvYnmztgOSNGfscsysemlFeLQetUhzRJ1G8sZSwJteiSaa2aOWbdQmzHMrL2QchFLex7rZsOeGcj8zWq2k13cqbXIsmmWpQIjW5ec9slfiry038R60y2JKvXOl9OH/gOFkdwB0gLRXQ5zPOG1N4svqpujQZO91UieTaV8zA/OZjMQdIBqGGusBF+O5CfZfo9nX1W/gSfZfu88q1KzvHOJhqyGJFDpAcUg30wXto3kVPiR5bZQ98+pQYrnm9Xx2ZnMo6AZ2/v9GJAyRVqoH2B0p6bYF+h+hyP0knDjFQxjGOlUQNkFQi/xdh7eu0aIBwWcfrM8LGuUTLFQWaq9xwqsL7tOfmnRt+LhanQt+WdIlEZnF736QOlXeA1G+vH7wh1By3ozxmmvpNNSWpCduYAl2z4hUnQyrFMrcvcgeJ1Yz4cV3okZLMfQnTChNr6vRkSY+fwCRINEFkQArhbXxRpINFAoQ6c0w8RCE7tK3wcyYraztmye/uVB1a/7HkABn6Tn1/fvct50UHyIaSMI/27am4Z0t6eM+2FptxDuGMxh2DVbpXdf/xyh7MEe18B0nv29J2kQBBJhRECb1b/okkYnC6BvLtIunTmXLB9tB3sSY4LghHsUoXrRf5nh0YJCQeE/KTLdosFiDcmMYUj3frhBbCW/+E7IdkQZwjUReD+hhWiQheivw0uXq/VV8AcgnYJaxmsQAhCdtREY1zYOPg1oVKpJrpMn7pb+9Su8JLj5PS/yphBU4YfrACMA9XP1gHXWmxAKEWYCxZ2uclXa2DJLk3MP2Qv8NcYp+eXtcK4ZXikmixAEHJRLJy3ggRVWfbLoaXSrrvAlYNsWX8MVgSLRogx0g6KKJtamO0OVMQQcpOdKGFrBo8dSXT6lgT46IBcnBDdoq2t8k56+BZWxwxfrgIPS2RWao/td2hE4dKar5ogDSFSVOX75ItREtg39SLzbSYZpFPuIugBjvucSpqpYKuBJOLBggCbapjt+0cgnnFX8Fzl9DMwvrkPHhI9USAwjeWaPEAaQqVvoekVzdoi5oaL7akzRnwskqYYGUqiwdI07PYbYUsuZGdStSrlQXXho8/qN7JpwSMthmj7TeLBwghCtjAIeKNwF6R3+Eexrw6f1tJj/DduybqliXn1N49wn1KiHjxAEGoXIJdLCJdABCqLNQ3SK6EEmN98gCIQpaWw0RivB9ZPV6i/PLY5ACRhEuXQjQh4mIslHzh9ZIIv7BKKzc1BWWIO9vHKqMRvqxcSjpAJDXFZR1WRf0+dUOJ7DaYV0TwWqX15GckWgYklvndlCNxVBcxIFwHSJWkgELxsQjPzTxJ6OyAKlbrOAPKi7HwQUk8IV2nHC/vhp4y8XDExY1JDpBa+j+KHLi5zNo8nxxdnVu4QbdKsVeRuKx5QTcVwkGCo2RMcoDU0udhEGZJiK66kQofF+S1x9TalrHxzH028A11SIg6phjlFAh+/2dkRh0gtQL4q0u6+xARs0UBR4jb9S+OrLSm4beVCOOZ6bZ35ryf4LwydoQAJap/PbKs+UMYO7vlKkqEvE/JlPyuWJVb/O4nR5RBPXHCICDrt+eHV4vqCVsWFXFPD418QwnlvrXXR17Lkx+es+3xqbMomd39l5LOGWCQi0TyL0HW7XgCJ3EsbKOTAq5fdsY9tjX03xeVAAGyBMr2ppIAabI3d64ylvxA0qn1c87eEyjYkCelJDEIXWyGhmWnIW3OitjqearqNJ4ESHqeZLqVBAh5WQ+NyIaMiRwYY2Ep44n0tyO/txIuOb+6EAAh+fOutUsVh4TTeBIwvYM0HWBZSGdULl9cvFaJC00uNrsScWWcsdhRyC5pOb6s69ym9L35Mwh/RWNuRbxD3JVYjt6NhcV0WSTEb/EUGVONvGH8lPBm/aIqkPnTWqbY3GdW4Ob/QV13wS7zG/vbkPk0CS/WSnBfq0twbQqSkly/Mh6ukdv8JN9U6D6l5CJrSgtbctyh+s6tox34Lj0Abrb9I9KiRFms4ulQAo6Nw1+h3cZmIsP4DpBEIZYGCLl1ydwRImpncFFokdi68YBMnRwgiRosDZCmC8OvVPb57on8l2rOTT83/lMnB0iiBksDhEMpia1DxGEytZJR4vSjza295e47TwdIX8nV7UoDhGGIAeJd9CZxEbdTIv+lmq/Hi5UaY4h+HSCJUh4CIH8viYwmU6LkG1gjk3WAJCpiCIA0RfZyT3LZxDmUaH69jmn9S/CQo08HSKIUhwBI04261YC+bUnuEsU+WHMHSKKohwAI8Uifi/BJsKLF+wacB2RnmTo5QBI1OARAYDH2UIdFePHEOZRojvdtFapRov+h+nSAJEp6KICwg4QiW4kfOm/iHEo07xIi/TJJPDHmvb01coAkamQogPAslbPIXIl39besI5QtzdEBkqiNoQDC+3S8WSGiPPLlE+dhoTm5hWNxZ2Px5wBJlPxQAOEehPuQEFn1ZPURrTXvlwOkjxbX2gwFkBtKIgFbiOb0NPWvjD0Cc4BMBCDkZMKUCpHlsPeu4uWwHqsX37WvHN87QBKlONQOApsxV+/3q5JhF06ch6XmlswsB0jiyhgSIOwg7CSbZNXV21e0lswsB0hfLdbthgQIZxDOIpvEzjIkH4ki29rckpnlANmqruYPhlyYb5B05wg75J46X+JcLDW3YmY5QBJXxZAAOaquHRJi2WpUb1/xWjGzHCB9NTiCidVUWIcCOr+bOBdLza2YWQ6QxFUx5A6CeYWZFaI5XRau5mfBzHKATAggTcr6woTqbLQVuQUzywHSVluR74bcQZYGEAtmlgNkJgCZo4mFasY2sxwgMwHI3A7pK7WMbWY5QGYCEMtJ5FJEPLaZ5QBJ0d7AN9hNyqJU2Zj08zo7OpeVuePCxjSzHCCJq8rKIT1xGtmal7jRH9PMcoAkLg0HyI4CPE0SRXBy0ZhmlgMkUYtDAmRfSf+cyO8QzUtUhRrLzHKAJK6YIQHyIGOv7WKi4zxC2p+cNJaZ5QBJ1OKQAGmqJ544jazNS4Tfj2VmOUASl8aQAHlzlen9dgF+eTB1ytr/p57fLvVf8fNIOlfiHJuaM84mAZA+FW63sTmGmeUA2aaVLb8fEiCfqYIVqdO3SVwSjlFp6nWS/jwiH7K7U+c9J41hZjlAEjU4JECoBxLKovhuSVSUHZqOlPSwyKB7STopc1rUMcwsB0jiqhoKICSGo+JtiMiXda/EefRp3lQ/8baSKIFArfOcNLSZ5QBJ1N5QAGlS1FMkPS5xHn2aH1iZdq+NNDxE0hslfatPxw1thjazHCCJChwKIA+W9LwIr/esinkekziPPs2bFs/h9e7xCUnX6tN5pM3QZpYDJFF5QwHkpZLuG+H1RhterMQptW5+FUmfj3z98prf+0l6Sese2304pJnlAGmnk+hXQwHkQ1WJgOtHuKA+yBmJ8+jT/IKSCCvh3016u6Rb10VGic/KSUOaWQ6QRM0NBRDCN0JpfbDxL504h5TmPNQKuZg/LemadcdvzZxOdEgzywGSsjoGCncnW8mXIny+s66rkTiN3s25ELxpoPWZ1ZmJC0uIXLuAJCcNZWY5QBK1NsQOcsfqrzG1M0JErizcrWPRsdU55K6RwS8giZ0PiuUV7sv3UGaWA6Svhup2QwDkiQ33CQdLelXiHFKaNyWz22Nt5+OgzoE9Fw1lZjlAEjU2BEAI2UBRIbqOpI8nziGl+SMlPSvSwc3Xwk3wtH0gZaBA2yHMLAdIotJKA4Sw8Z818EgwIuHlY9HdqoyOr4kMftDG776TOfRkCDPLAZK4skoDpElBVL4NBS8mTqlTc4ISiQUL0aMrz9sz135B2AnmYi4awsxygCRqqzRAms4fr6iqTt0nkf/U5pwzyOoYoqOr0s78lV8Rbt9PpQ640b60meUASVRYaYA0nT8INX99Iv+pzfFUfbs6h5w/0BGlq++08f9zh56UNrMcIIkrpCRAdq7KHVBeLUZcEOYOBuwjDt6jXDnQ8COB2//cz4ZLm1kOkD4rYq1NSYAQqsECCBGeKzxYFuh9km4SYISaJZsl464k6dTMTJc0sxwgicoqCZAnSzoswt8zqkRtj0nkPVfz4yQdEOksJJ/coSclzSwHSOIqKQmQpvMHKYDelsh7rubPkfSQSGfsIOwk60R4fs7LzZJmlgMkcZWUAsilJFH/PES/rOOczkrkPVfzpstCIpA5i6wTMVq5o49LmVkOkMRVUgogd5CEFyhE7BzsIFao6WUhXqzQPHBREyaTi0qZWQ6QRA2VAsizG4IQ/0bS0xL5ztn8j6pQmPdEOowt3KYAzD68lTKzHCB9tLHWphRAmh5IoTTCzK1QUzg+N+ncqG8SITTfyBx6UsLMcoAkrrISACFlTiwAkXPJFUaOv9oUGQ+5OFOEHnQRp0VMVoieu3HTnqiKs2/tub3PSQ6QRGmWAMih1VNV3LghOkES1W6t0ZerxBG7B5jCE0dUb4j2qXNn5ZpLCTPLAZKonRIA4ZVgLBFcib+SiSI4u/n7q8V+40BHvIQkXitGuUNPdq3fyeeYE304QBIlmRsgTcF/uHf5PeXWrBH120M7Gy8KideKETm9cDrkInIXvyVXZw6QdEnmBsgDq4Pr8yNskbz69uksF+mhKfM89x68UQ8R9yQ4JHLRk6qOcobU+w6SqJncAHlTdUDfL8LTA6rKTS9O5LdU80dUO8URkc4JcyfLSYxOlrR3JsYcIN0EmXv97jB6zgGwn4mMDXmDyC2FefX1bvMf7GtC78n2HiKCLsmTFaNHbTysSmHaAdJNejnXb3DknAOQgPqVkflZ9V6t2CX1T+xuhoyQZFqMEa8iKe2Qg7btVl3HcBOrq8Q2vs8JEBJBE7YRorGzl2wTE+9B2P1CxFNbcvU2Uaw40LZx13//4SqA8wZdGrT41gHSQkhNn+QCCMGJPF0N1Rj/niTy4PJyzyrtJAk+Q/VLSPlDtvcmolzCiYmTY4zceYAdIIlKyQUQzBASVIcI257sIdYJ9/NuASZ5/wEAtlHKLvKxyr173W0D9Pi9A6SH0Nab5AJI0+LgMdLxiXwO0TzmjeIykPCZbYSZRhkHcmh1JbKrxAImu/a1/r0DJEV6mXLzXqLBfOLweo1EHodqTgKJuwQGO10Sc2xD3JkQCt/lvqcUOODXAdJGaw3f5NhBmpTApReuyylQU83CrnK6fxXty0/Tu3vyFXPuyP34yneQjKutq+JDQ1+mDv0O/W7P6r33ZzPyW7KrpjcefeXEwzEqVOEKxgHAPRAJ8wgn+WrJydR9U3uFjJBzJEqH9zFnO8mir+I3BwmdQUiR84JO3Iz/cegcsplAbnwuu3EQizPr1ou9rwfJq5YLIIgPc4pMieS6wl2Z22U5hIrYDTF7yOTOvQSZFHPGRg0xh80xdqmz6+8fSGM0Bj+pY+I04eI2FvOX2v//a58TIFkZ885cAhYk4ACxoAXnwawEHCBmVeOMWZCAA8SCFpwHsxJwgJhVjTNmQQIOEAtacB7MSsABYlY1zpgFCThALGjBeTArAQeIWdU4YxYk4ACxoAXnwawEHCBmVeOMWZCAA8SCFpwHsxJwgJhVjTNmQQIOEAtacB7MSsABYlY1zpgFCThALGjBeTArAQeIWdU4YxYk4ACxoAXnwawEHCBmVeOMWZDAbwAs0Jn2mWu5rQAAAABJRU5ErkJggg==;" vertex="1" parent="1">
          <mxGeometry x="-390" y="391.5" width="75" height="75" as="geometry" />
        </mxCell>
        <mxCell id="rij7Vu_CJ73uvpwCJqc9-7" value="" style="shape=image;verticalLabelPosition=bottom;labelBackgroundColor=default;verticalAlign=top;aspect=fixed;imageAspect=0;image=data:image/png,iVBORw0KGgoAAAANSUhEUgAAAMgAAADICAYAAACtWK6eAAAAAXNSR0IArs4c6QAAGt9JREFUeF7tnQm4dlVVx/8qSmo4IKCCJqkgIokJzgqCOFOaCNJHCiWaggmlWZmKaFmaqaSmiJlWqDghoohQOTJogJJDIkOhICSBChTiROd37zn3e7/3nr3P3vvd57xnWOt57nP5uHtY+7/POmfvNd5Mi9FDJe0haSdJ95C0vaR7Ljak9TYEFkLgEkn/Vf58U9LnJH0xdcSbJXQ8WNL+pWBskdDfuhgCXSNwbSkoH5L0npjJYwTkEZLeLmmXmAmsrSHQMwS+IukFks4I4StEQLaW9A5JTw0Z0NoYAgNB4IOSni/pah+/TQKyq6RPSrrrQBZtbBoCMQhcJmlfSee7OvkE5BnleW3zmBmtrSEwMARulMS9+oQ6vl0CskHS8QNbqLFrCCyCwIF1QlInILtLOlPSLReZzfoaAgNDgC8JJosvzfI9LyB3k/RlSVsNbHHGriGQA4GrJHHvvqIabF5APlFI0JNyzGRjGAIDReCkWY3trIA8PFQ3PNCFG9uGQCgCD6mOWrMCcq6kB4aOYO0MgREjgHvKnqyvEhCOVRyvjAwBQ2AVgcdJOr0SkPdLwu5hZAgYAqsIvE/SBgTkFpKukXQ7Q8YQMATWEPihpDshII+VdJoBYwgYAusQ2BsBeYukww0cQ8AQWIfAmxAQrOYPM3AMAUNgHQKfQUC+Vfhd7WDgGAKGwDoEvoaAfF/SHQwcQ8AQWIfAFQjITR0Bg9oMZQARXRdJ2qyMYcc4+XhJB3TEx5CnwZh7dOnxgDMpFl/+/YDERVXjnVX2J2qU8fBHSqG+8xe7ph91ISAEXB1WBtH7GLx3GdL7mNhVTKg9STEunVsvuF2YiEHdePeRRLKDFOo7f9FraltAeBu9MoIr+HmdpBdH9JlKUzJzkEWmjs6RtFskEGd7lDMpbkd95y8SntXmbQrIKwoj5KuTuJLeKOnIxL5j7UYMtesYyt+eHrnwqY0XCU+7AoJfF7G+ixBZJ/AwNlpFwPdAf6BMxRSD1dTGi8FmrW0bX5DrS7XxlUkcbezEWfirFtm4BsjU3vi515v0OLYhIG8rL+VJDM11OtHSDZmA1DxIKUfKpOexDQF5sqRTkrhZ3+k5ZU6uTMMNepjcb9SpjZe0+W0ICHHtlydxs74T+n1i5I38d5CUN6oJSMBT1YaA3EbSDQFzhzTBwo+l38gEZPYZSHkhJD1DbQgIcSXXJXGzvhNj4ZdvZAIyGgGhFMIFmZ7onQv15dczjTX0YaZ2JMq93qT9b+MLQlZG/K5y0LNi09XnmLSnY+R+YKY2XtK2tiEg/yTpmUncrO+UYgDLNHXvhpnaA517vUkb2oaAcEHHyPedJI42dmIMsm5b8uxVTHI/MFMbL+lxbENAYOT0Mm1KElNlp89LeuQiA4ys79RcQ3KvN+lxaEtAYAZHRRwWU+iYItPKC1M6jrhP7gdmauMlPRptCggMvaoIyDoqgrObF+mH3lDYPo6I6DOVpl+Q9CjHYgl4crnCu/CZ2nhJz0nbAgJTHy9LXVHNx0fExVPq7dFJKxl/J5xA71X4uX1vbqlU/7pY0q0jIZjaeJHwrDbvQkAqxlD9nlpevAm5JWSUktEPlrRP4bm7X9IKptWJexkxIZWn9HaS0PSlhgUwHoVjvlvCuG2pDFhkvD7zF/20ICDUlKbGuZEhYAhsisBK0oaU86sBaQhMAYFzERCLuZjCVtsaUxA4GQFBFUtyBSNDwBDYFIFjEZAHzRcuNJQMAUNgBYFDEJAqu+LtDRRDwBBYQ+AnkrZEOCAcDA8ycAwBQ2ANgY9geqgE5AlFGksyIBoZAobAKgKkwz2tEhD+x2fLQuoGkCEwdQQoCUKe4rUinvw3Fm3SRxoZAlNHgDSu580LCP8+OUNGxKmDa+sfNgLYBZ9WLWH2iMX/w/GNIKWth71G494QSELgijIJOL9XaF5AqqMWrtA4ExoZAlNB4MYyZID6NWtUJyD88eCiuM27p4KMrdMQKL2kCSLbhFwCQiPsIu+SdCuDzxAYMQI/lkT2nBPq1ugTENrjhkLA0zYjBsiWNl0Erio0t0+URMGgWmoSEDoRRPMpSbtMF0db+QgRQBmFcKxdyFO+IFUfLuyHSHppWXhzhHjZkiaCwH8W14bXlHfsnzatOeQLMj/GoUWV2t+StGfT4PZ3Q6BHCOApgs/hO2N4ShGQavytitIETynsJr8hidhoMrFXPzE8WFtDICcCPyjqW1Y/JC88qQwKvCZlkkUEJGW+ofbxpds3DIe6qwF82+YGgFRm+nBVkTUMwzAcZCvb3LBtsy9IGE6ja2UCEralJiBhOI2ulQlI2JaagIThNLpWJiBhW2oCEobT6FqZgIRtqQlIGE6ja2UCEralJiBhOI2ulQlI2JaagIThNLpWJiBhW2oCEobT6FqZgIRtqQlIGE6ja2UCEralJiBhOI2ulQlI2JaagIThNLpWOQSEqMP7lkV4tpd09xGG6e7syfSCG7VRPxAgfBYPXopC8fMNX7RgCMspAkKhzT3KkmmVq3vIXNbGEFgGAtTGJM/uhySdUZT7+HkME7EC8tSiWORrJe0YM4m1NQR6gsC3JP2hpI+F8hMqIA+Q9JYqX2no4NbOEOgpAnxJnifpa038hQgIceivLmqec7QyMgTGgsDPJP2xpNf7FuQTEOpuE8O7lqd0LMjYOgyBGQS4n5Bj4YY6VFwCcseyHMKvGJSGwAQQ+Pfied9L0rq49ToBIcUPqsuHTQAYW6IhUCFAPuq9JVF6bY3qBOR4SRsMN0Ngggi8p8z/5hSQIyW9cYLA2JINgQqB3ys1tiv/nv2C/HKRsPrCQmN1C8PKEJgwAljj711a5DcREKt0O+Gnwpa+CQJrR63qC3IfSd80kAwBQ2AFAdxR7odMVAKClfxwA8cQMATWEHhzofZ9YSUg3y3rExo+hoAhsIoAMrEdAvKrVclbQ8YQMAQ2QWBXBOSVko4yYAwBQ2AdAi9HQKw2uj0ZhkA9AiciIF+U9GBDyBAwBNYhcCYCQkkqQmWNDAFDYFMELkZArpd02w6QoVjiqYX7PJ6TF0narBRMgrGeIOnOHfAw9CmuLTQrxxV4nV0uBIfS5xYxDb+YuDDGe4eksyThpEp+gd/t2Xg51xsL03UIyE2xvSLbXynpDyS9r6HfwYWg/pUnOULktKNsvmv5gpldHA/1lxJXSzjDfFRdn8bLvd5omNoWENzmf70QEN5UIUTdQ+qyPySk8cTanFcoVHZzrJmHHMtvDJ1TfjHq+pANhEw1MZR7vNzrjVnLWts2BQTtGMKRQp+W9OiUjiPu89GyYGrdEnmpPDly7Sd6okVPKWuIxwyZe7zc641ZS+sCckH5tvvfJK6kOxUPA4XeqZ5rtIrAByQ9wwHGCUUOqAMigaLPgY4+pMjZb8nj5V5v5HJWm7fxBeFOwzn23CSONnZ6YqF+5k1mtIoA2R1dQuDL/OjCzycgH07IRZB7vNzrTXqO2hAQ3j77J3GzvtPnJD0q01hDHyb3G9W+IAFPRBsCQoYIwnZzEEm+XpdjoBGM4Xug3+85fqV8Qdo6Yv1bqaL+chHWTRK362Z+/meGUZQ1t5d0sYP5lPUmPQJtCAiRieRFzUHo+c/MMdAIxhjyF+Seki7JuAfHlvafjEPWD9WGgGxRGh9zMH+XwnCFgdFo2Jf0NvaPNLgvaTv7ThsCEpKtMQawtg2ZMbwss23fj1hYvLHqd00YE4+W9JQ2Jm5DQPDrujQTs3yaXefQTFMMZpi+HLHw3cPVBS0lxyb2B9eh/1syknhr/HVuHtoQEPyqPpWJUYxfGMGMlnvEwuj73kKj+C9FaPZVPd4MXGd4keyUi8c2BORNkn4/E4NvlXRYprGGPkyXRyzsIBRC4tjEvKGuQrEYbyPpXpI2LzuS1RBtFkK4Lg1o4OAYmf+1qAly/8D23mZtCAixvDtk+OTeoVQFbp1joSMYo0sBQc06q3bNAR/H5YeWLkS7l89IkxcyTphflfT5sqbH9wMZ2VLSaR7ftcBh2rGkM/kbCv32i4K5qG/YmSpvQT676t7lHSTXmhCKPyov0DnCGf5Z0rsk4adVm419hnGEHKfLhV6wbXxBKh5Rw52UiDTGxn9M7DvWbkMSkLtJ+ssiU+dBLW0GIRS/WXyNPtMw/j5F0afTF+GhTQHBURHVGxe7GKLuITUbjDZFgCPD4x2g8BDwMMSQ78gWOg5HGb4M/HCf4G3N8fqI0AEWbIcdhBgiH3EnTuanTQGpmOYTG+ou8mdF+vk/XRC0sXbnrXlXx+K41HKkiKEUASH6k4JKjyi0i9wjbhczYUtt/7Yh6SFCi2fHbVLm70JA4Ovrkv6mDLn99hyjqOR4+6HHxk3FyI3AO0vrcXVZ5Q2O7v+QBNBCBQQhINoTI+AuCfN00eU1DS/W5NRWCEjK22eRRf+gNCzdqhQIXFOM4hBAs0MM+SL6fu4H2DZ89DulAKJRzEk4KpILmnUQDcnXESJPAW98VLUc2fYsS46HzE29QSow1xHPGEbN2K/sVQgITPb1zRACjLWJR4BqSr4wAjxpyfa/b/zQzh54eOOFy520SQM1OwgJRTjWcUzHN89HJGFH+OoIzWqsfe58BITL32MzAmFD9R+BumQNFde8bSmTnKs+JarZ35Z02YKwcIfgQu4zHPuCrPgaNWm95lk8BQGhFsKzFmTeug8HAdTnvv3OlQ8A3yzKh6PuzUloONF0uojiNy7/Pe5uMcfF4xAQJBKXDqNpIIBCxKV6P4aU/4EwMAZfBx5GHBhxUO3CT4svCQFXOzr4fGnhuvIXjr/FFol6NgKC6hD3EKPxI+BTFYc8B6hL0UbyFcrtihKDvs9WhnuKK20UX7SXRUy0dRW7Qf6qPSI6WtNhIkCBVtTpdcT5/sWeZXHBxejWF8JcgEPlPBHG67LPsAYu6yHEfWWvSkDQceP7ZDRuBJ5eXL7x1K2jq4uvA3aVOiIdKSlK+0S+uzNauDoPZO5e9AuhlWq3s9F/lsQ6BLZht3FdYFH5kkGmjnwuLstE42NF0NavORhwRbXygkDTFUL4k10+O5A5CIbANtw2aJVcScqPLLKIcPyqI/KTkXS8T+RzQuRFjxdxHeH2FKJVw2PhOQwwL2lmNOzTY5CXF1LuuOrAvL3M6l43I+d5zvV9IYSDCMdfcDDk880KMWl8p8xLvJIVdF5ArF5hXx6D/HwQBk04dB190vE3Mspsm5+V5BFDsm3yDH/FMQMvCZwsffSYMiJxpU3dWQ0/+yYfneQVWselIeDLeOmqMoaTaV/ckPhi8Hb3+VOhgOCe4SLU1Pfw/H2dps51mUnxW1naztvEQQgQifdsR0tUmrhizBMOfsSM94Gakgjy8JMCyBc/7xOQWjW2L4fV3ye6UfcBTONhPQI+AXGVO/DZFLrGmAhVSizUEc6PaOKaEqZjZf/zmgGcNp6mJG+t5BrqGlmbbwUBKnxtcGDhy+be9Ix0BS/u+biK1NGKzSKQkfm8vocXrvVc7GspZPGEeRIP3YfosUAMrFkNAnwlXEV2MAKuqDVriMwjqXVecm7E84rQ3rc5BuQZxV4TSnxt0OihnCCxg5NCBITO+Om8oghsgUmjYSLAmxMFTB3h3EfAUR1hU8C2sGzCDcYVf/7I0kU/O4+hAlJN/EtlHlQqHd06Ozc2YJsIYHV2ZanEgxdP3joi/rwPGfZ9YbN1xT6zYBkrINWkqNyeVKrUqEPYRRnpLAue6CAkwiBu20U+71jKtBG/vmwi9t7laImmLWd5hbW1pgrIPFg4hxGIwg//ffNlo5l5/qM8RUX3yjxXzuF+XCbM+GHDoHhy49FdRxQxen1OphLH8iUSJH69lViUXAKSuObBdPPVABw6hni44sZ+R8ducPTCV2vZhPHadYfCVwxfQjySs9LQNzcrGJ7BfFVkh4zh830qzhIPvGZbqb0RuXlk6fSVFSfoj7xdWb8kQ97cSHwXaj5GAeHcTsodl9NfBRhHrz7UrA+pm4gQYVDMRiYgYVCOUUCaIggrZPD05UuzbAp1Vecrcn4uZk1AwpAco4BcWFimCaDyEckR8G4NLTsQhmZaKwyWJJvbrqE76WtfnjbF+l4mIGFI+soODxVDMlyicZwn/K+ox8GRBn+8PhG5uvAIINrPRX9X5OA6NBfTQ93cXOufH+dBklDpUuiF9JcpRMwBvj3vTuncYR9Uv3XuQ3xZXCl1OmTPORV3pr0lfcLRwgSkpV0ioyAuFamCMc8W2SrJG9VXIo8VnhHzhN9VU+WnZa+JGBWiX+sIg6IvO0sU7/YF2QiXz1gWBWrZOOtGpTDQ0IdjFD5MdYTBt8m42AJLwUPiNoP6uY5iPHsbJzQB2QhRTMaLRmBL9wzcNPpKvvjsnSX9R18ZL5LWvaD40r/ZwR8uUHjpZiETkI0wHpDZ58iXSDnL5i04iC/LYN+Ph76IV45fhApnIROQ6QoI4bekt6kjCvKEJljL8iBGDuJLYI2X+Y8ix3M2n7KAoCok1qFyrMRajAYrFxHnffTMYOSyxXLdF8LJknrideQrRtMH/gmtfWANI98r6yVm43GKAkKRFWKb75sNxfCBuPhilSb8ddlEuTuXizihrc9cNoOO+bHdkHyhrowB2VlQ0WejKQoI4cP7Z0MwfiA8TlGvkulw2QQPrsA3rNakIwWv2ErFbazrTwpLOkqP+3sGzy7YUxSQazyu3W1sbN2YxERTBm3ZhLENrU8TLTtoypcadZZ37lVkb8lGUxSQm7Khlz4QXzBcOZZNoUkCsx9dIhfus9nMDkUB0Kx1S0xAIncqU/O+CAjLcV1455eaVTsUiSP+YU3W/axOihV/UxMQ1vvzyM1pozk2l9A0/G3MPzsmqTi5YzRlUERrhHdv14Sm0VVzsOLl9LIUwo25mVtEQNAGcebj0tQUdJOb70XGq0uxuch4KX3JxZQ18s3DBEeOs8oCOK4s7RTOIeOgL60TobmUXuuaiGb8qGdS4uWJm2+FUgUEGwKJhI2Gg8A5hQcs3so+8qX3pE45QUtdE7YpUv7UUeuVr1IFxJXjtGvwbL44BJp8rKgg68qiuKxM72d7inKS0JDCpK1RqoCgSqM4vNGwEAipFoX6mWRxdeSrvdEGEjt5nCZxpkTgW6VUAaFcVx9SwbQKzggHp4QAb2QfoQ0i0VwdUQL6iA5xeW1hUH2JY763ll69rbKTKiCPk0TFIqPhIEC1KDRVlArw0f08PmPXS9qh7WPNDHPwfBcHsyhbXIVHs+1KqoDAAEcs/IqaLn7ZmLWBkhEgZ9R+AV+PaoIzimzpD3fMhpcv3r5tE4FPfLHqqJPjFRMvIiBtA9TW+H2wpPfJDlKHM46K/+DZgLbvIthm8AVzmQ9Itu0KmMr63JiAZIUzeLA+WdJdTPuONxeV9TXaSgfkUxTAb2chwSYgwc901oZ9/4Kw2IMbMrNgfOQe8JOsyEi+Yj5MRYyNyy6SmZVpHrHQ86PvXyZR6Yn8Tn0nV/Xbiu/c7uW+Qj7MyZcLJUFnNMUvCDW0KbiyTCJYiaCfvhM1xcnz5SNvjb+IBVJIk1hzHxEFSaRmZzRFAWny7Wkb/L7kug1dJ+G3vNldhOoXgV/EzdynWq7mpQCQyz4TupbodlMUEEDCRYEz9j6SNotGLa0D8ehkW8QnamhEiLIvazoFMZu+NL418+BjoHQRzopUweqcpiognQM98AmJxcAXqy4TI0tbNKO6z7ePTO14ADQZOFuB2ASkFVhHOShOgXeuWRlHLKpT/XSBVe8r6WRHf+qfYzRcCpmALAX2wU2KU6ArGRtZDEPi2n2L5gt1rcNwzdGUrO5LIROQpcA+uEl9bh84E7rql8cslDsMWrM6IqCrLaOkl0cTkJgtnFZb3DxIbo1qlQKZrvvHbkXtwPMyQOPz3P10GVXIb1dW9wwsrB/CBKQVWAc56C3LwCRqb/BDArbNG1bC/YMaIzn82zimuWp+zLJB9kQEhayQ/GA8bI1MQFqDtvcDk3KVRAyVQPC1uG0k1zmLZvruIT62CP2uhIXfl0WuwY5YOQEb+Fi4afCmRijIRVxXYSpmiZQhIHApF/nc7EPnoEIWXxgytaBAcCWqCBrPviBBMA260baSNkgiSVxdwufUxZGVZfvMKVTxUft4KkM1/UgDxLHtveXv6KzvJiAZd6NnQ91dEjVA8BjITZSqO6hMJ5R7bHLw4laSm3CFwWWmyd9rk3lNQHJvw/LHI/v5qyQRVJSTLi/P+qcV5aPx4m2T8O2i4hcaNFzqc3pff7uoH4J/WVCGfROQNre5+7ExqHFx5gFblP57TlvUlN1w0flc/fGVw9erUibgdpIjUSG5kQkddqU5WuHHBKStbe1+3OeWMdxNqlkXZxjiPjujEcpWxiwzFAgH8fKVwJATIdXhlAs93t3OeowmIJl3b0nDvay8b8RMjw2DrOmVTYG8u33IWxyzBtqimuYYVgkMsT5V1bCQsdBy0b8277AJSAiE/W7Dl+PYQBbR4hxf1h9EOMZIxKujDSMtKXVYQgiNHF+ldUZHE5AQ+Prb5mmFI9+HA9jD4Q+vWNSdC9kFAubqUxMyM6KsQOPWZPO5tLzrYKlfIxOQPm1nHC/YNzg7+zaeGApCWUO/MHEcDKc1mj2C1XxBX6wG4yJBdCYgw9lbJ6dsJuduF3HJJlncBSNYa64lHFrErhzToDbepMyDfUFyQd/tOGS19NXiQyVLlB8XcaNNEeALgS3H9exTiXhHSStHLROQ4T0+qDRxyKuL7mM1VK7FBZ3MhEb1CDRp/cjauGJoNQEZ3iPUlBaUY9VHhresTjnmuSfEF21XHfGSIbHHtSYgne5LlsnQ13N8qiPO11aWIgxm3OvJkeaqzfgi/LZMQMLA7Esr6kK6jk7YOEieEO2x2pfFLYEPXxlsqv/ubgKyhF1ZYMrDPPEXGAAJjTUKR4DS1ldL4vc8ESW5pQlIOJh9aMndwpVAbSj5fvuA4ywPeCZjSKyj/U1A+rZdbn7YK6zgdWGxOBpuLelnw1lObzj1xcIfawLSm31qZMRXevuarrN9NHI7nAaozV1FS79gAjKcjcRLFa2LUXcIfMMEpDuwF52J6Dqydhh1h8CVJiDdgb3oTFzOzQC4KIpx/W8wAYkDbJmt9ygj/pbJw9TmvswEZDhbvoWkS4q4jq2Gw/LgOT3OBGRYe8hX5IOSthkW24Pk9tTCa+HA/weH6bjvNA6u0gAAAABJRU5ErkJggg==;" vertex="1" parent="1">
          <mxGeometry x="-387.5" y="231.5" width="70" height="70" as="geometry" />
        </mxCell>
        <mxCell id="rij7Vu_CJ73uvpwCJqc9-8" value="" style="shape=image;verticalLabelPosition=bottom;labelBackgroundColor=default;verticalAlign=top;aspect=fixed;imageAspect=0;image=data:image/png,iVBORw0KGgoAAAANSUhEUgAAAMgAAADICAYAAACtWK6eAAAAAXNSR0IArs4c6QAADp9JREFUeF7tnXnIN1UVxz8viNAf2aZo5ZJkuGZmrqWouaVvmpDmkoXahmYuqdlCWFBmqWlSZpZL5FJJoGlpprilueRS5JIaqQmlmalYYfhHc2ReeHj9zcy9595nfnNnvhd+KDznnHvP58z3nXvvbEtIa68CtgV2A7YAVq1/K6aFlbcIuAj8D3ii/t0OXAncBDzrigYs8ToChwOfAdZIiCFXEVhsAn8FvgF829ORRyA7AscDO3s6lI8IzInAr4GvVzOea2P6jxXIEcC3YjqQrQgMjMCRwBmhY4oRyHuBy0MDy04EBkxgD+CKkPGFCsQW4LeFBJSNCBRCYEvAFvKtLUQgtiP1W2DTrmD6uwgUROAeYAfgmbYxhwjkWODkghLXUEUglMDp1Rbw0SkCWQW4C1g9tEfZiUBhBOwa3lVNY+46gxwGfKewhDVcEYghcApwnFcg1wHbx/QmWxEojIDNkN7hEYgtzl8oLFkNVwQ8BF4JPD/LsW2KZbeQPObpTT4iUBiBdwG3xApkM+COwhLVcEXAQ+BQ4KxYgdjaw9YgaiIwdgJfrhL8kgQy9jIrPy8BCcRLTn6TICCBTKLMStJLQALxkpPfJAhIIJMos5L0Ehi8QOyuyuu92c3Rr8SdPnum52zgT/V1rjcDW9e/A6qn7l6RkeevgBvr58Lt2XDrZ6v6v/tk7Cc1lASSSrDBvySB/BP4BPCzFhaWjz0xunEGXo0HXR17f+AkYM0MfaWGkEBSCRYukJuBbSIY2DWBEyLsF5o+BHwSsGfAQ1pKXyHxQ2wkkBBKDpsSziBPATaNei4yP7sFfNdIHzM/GDg/0s/bV2Q3jeYSSC6Sy8UpQSBHOV+0sW79SOpKEeyucb7txtNXxLA6TSWQTkQ+gxIEsjbwiC+9l54FsmeCQtueCS/2iO0rdEwhdhJICCWHzdAFYjuDtkPobUtD3/4BvFg9XGdPoLY+490ykJi+vPk0+UkguYnW8YYuEFsL2JogpT1ZH/hdMezOb3v7TUoL7Sulj1m+EkhuooUIpGurNQTL7wO3fTtfgBDQme2ArRNgl9tEAslNtBCB2IW69yTm/p/Ai4d2fWXvhL7sxSD2Ht15NAlkkagPfYplW7u2SH/amb/tLj0Q6Pu36gr9GwJtZ5nZlfWfJvinuEogKfRafIcuEBv6gcCFzvztSbszI3ztVpJbI+wXmp6bYb3k7BoJxEuuw68EgZg4TCSxza5/2MG+foSj3Xdlb/2373TEtP2Ai2McMttKIJmBLgtXgkBsrJ6LhV8AvuLg9sPqustBEX6vrbaibwA2ivDJbSqB5CZaxytFIDbcQ4DzAjnYh5HsWxreZp8X+Gp1kdG2bdvaWvWdxbt4O8rkJ4FkArl8mJIEYmO/BDi15U39diu6fRxprwy8bHFvIrmgIZbd52VXz+0+sXm3IgQyb0je/kt884t9yuJS4PH6ZztI7wbW80Jo8bNrG3fXXwh4FNgJ2Lz+LUJ3rpCDF4grKzmJQCYCEkgmkAozTgISyDjrqqwyEZBAMoFUmHESkEDGWVdllYmABJIJpMKMk4AEMs66KqtMBCSQTCAVZpwEJJBx1lVZZSIggWQCqTDjJCCBjLOuyioTAQkkE0iFGScBCWScdVVWmQhIIJlAKsw4CUgg46yrsspEQALJBFJhxklAAhlnXZVVJgISSCaQCjNOAhLIOOuqrDIRcAvE+5WhTONWGBHohYC9dsi+dPWytqSX7tWJCBRKQAIptHAadj8EJJB+OKuXQglIIIUWTsPuh4AE0g9n9VIoAQmk0MJp2P0QkED64axeCiUggRRaOA27HwISSD+c1UuhBCSQQgunYfdDQALph7N6KZSABFJo4TTsfghIIP1wVi+FEpBACi2cht0PAQmkH87qpVACEkihhdOw+yHQJhB7WMq+4qomAmMnYE8UXj8ryTaB2BNWeqJw7IeG8jMCO0ggOhBEoJmASyB29pj5nK5Ii8DICEggIyuo0slLwCUQrUHyFkHRhktAAhlubTSyARBwCURrkAFUTkPohYBLIJpi9VIbdTIAAhLIAIqgIQyXgAQy3NpoZAMg4BKI1iADqJyG0AsBl0C0BumlNupkAAQkkAEUQUMYLgEJZLi10cgGQEACGUARNIThEnAJRIv04RZUI8tLwCUQLdLzFkHRhktAAhlubTSyARCQQAZQBA1huARcAulzDWIDLLVdV+DAbwaW/VYBNgG2AjbLnMuzdT+31P/dAtiy/r0xc18p4VwC6XMN0jjAlKx78LWXWpQkkIeBI6oD9MoGNvsCHwKWZmB3NXA48FBDrJOA4zP0kyOEBJKD4owYJQnkfODgQA5nAocG2s4y+y5wWID/mtVZ6wrgrQG2i2niEkjfU6yZr11ZTCoZYpcikIuBAyLzPQP4VKSPmV9Qn4ViXG0qtlKMQ2ZbCSQz0GXhShDIg/Ua47+RDFYDbqoO+HUi/J6sppzbAQ9E+JjpzoBNyebVXALRGqS7XCUIZC/gsu5UZlocBZwW4XskYGceT7sI2N/jmMFHAskAcVaIoQvkRcB2qZ5x5r8BcG+E79rAIxH2C00PAc5x+qa6uQSiNUg39qEL5A7AtlZT2h+BDQMC3A+YoLxtReDfwAreAAl+LoFoitVNfOgCOR04ujuNVotQgcTskjV1eCewaeJ4Pe4SiIdagM/QBeLZvVo+7dAdpguBAwOYNZnYLpb1NY8mgSwS9aELxHaw1k3IfT3Apk4h7WngdSGGDTa7Vlfzr0rwT3GVQFLotfgOXSA2dDvwvFuonwNOjGC3e8tV+q4wfU7plx+LBNJVHeffSxDIj4APO/Jbub6NZqMIX+80a2vgxjkt0C09CSSiyDGmJQjE8vlAtRN1SUxiwDXVhcIdI33M3D5GE/tVALvdJMf9X47hvuQigXjJdfiVIpBYkaTeSBjzab/UvnKUVgLJQXFGjJIEYsP/Wr2meL6Bh92Kfkx1cXCfDLxsR8umXE3t9fVV970z9JUaQgJJJdjgX5pALI27gd8B91Q3Ff4ZWL26gr0G8H4gZr0RgtRuq7edKbvN/r56G3eXatPgnfX3LzcOCdKDzeAF0gMDdSECjQQkEB0cItBCQALR4SECEoiOARHwEdAZxMdNXhMhIIFMpNBK00dAAvFxk9dECEggEym00vQRkEB83OQ1EQISyEQKrTR9BCQQHzd5TYSABDKRQitNHwEJxMdNXhMhIIFMpNBK00dAAvFxk9dECEggEym00vQRkEB83OQ1EQISyEQKrTR9BCQQHzd5TYSABDKRQitNHwGXQHxdyUsERkQg5v1FI0pbqYhAGAEJJIyTrCZKQAKZaOGVdhgBCSSMk6wmSkACmWjhlXYYAQkkjJOsJkpAAplo4ZV2GAEJJIyTrCZKQAKZaOGVdhgBCSSMk6wmSkACmWjhlXYYAQkkjJOsJkqgTSAn1F8BmigapT0hAvbh0etn5dsmkHl+t3pCtVGqAyDgut1dAhlA5TSEXgi4BGJTrNjvXfeSjToRgcwEJJDMQBVuXARcAtEUa1wHgbJpJiCB6OgQgRYCLoFoDaJjaioEXALRFGsqh4fylEB0DIhA7imWziA6pqZCwHUG0RpkKoeH8pRAdAyIgKZYOgZEwEfAdQbRGsQHW17lEZBAyquZRtwjAZdAtEjvsULqaq4EXALRFGuuNVPnPRKQQHqEra7KI+ASiKZY5RVaI/YRGLxAbICltusKHPj9wG3A7cDjwJb1bwtgpYz5PFf3YX3Zb3XA+rD+1s/YT2ool0D6XIM0DjA180X23x4oSSD/Aj4LnN3AZR3gjOpg3i0DtyuBI4CHG2J9HDgJeE2GvlJDSCCpBBv8SxLIRcAHAzkcBZwWaDvL7Gjg9ED/C4EDAm0Xy0wCWSSypQjkWmCnSAafBk6N9DHzY6pp2jcj/a4Bdoz0yWkugeSkuSBWKQJ5S8tUpw3NTcA2Eex+A2wbYb/M1KZ2Dzn8crlIILlILhenBIHYWtJejOZpewA/j3DcE7g8wn6haZ9r3uWHKIE4i9blVoJA3hd5kC/M+dXAP4AVukAALwKrAM8E2M4yMXFd5vRNdZNAUgk2+JcgENsl8h60lrZtBW8ewO+Oegs3wHSmiYnRdtnm0SSQRaI+dIHcU/2r/PbE3G03y3a1uprtWtnuVUq7G9gkJYDTVwJxgutyG7pAngBW60qi4+8/BvYNiPETYL8AuzaTvwOrJsbwuEsgHmoBPkMXiKWwIXBfQC5NJn8B3hTg/wiwdoBdk8kGwL0J/imuEkgKvRbfEgTyUeAcZ/6xB22KGD9S3YryA+c4U90kkFSCDf4lCMTugdrKmf/3q3u1TGChzQ7wj4UaL2d3a32PltM9yU0CScLX7FyCQGz0djvHgZEMDgLOi/Qx84OrKdn5kX4XRNwGExk6yFwCCcIUb1SKQCyzpdU27C8DU1y5vv4RaP4yM7se8lSg8+7VNvIvAm0Xy0wCWSSyJQnEENiU6UTAFtRN7ZCENcvCmLamOLelH1v4fz5hSpazpBJITpoLYpUmEBu6/ctu/2LbNYcbarFYHrZOsWsmu2RkdXXdj60v7BuAJort6n7sjGZnqiG0wQtkCJA0hukSkECmW3tlHkBAAgmAJJPpEpBAplt7ZR5AQAIJgCST6RKQQKZbe2UeQEACCYAkk+kSkECmW3tlHkBAAgmAJJPpEpBAplt7ZR5AwCUQe/Pd9wKCy0QESiewFvDYrCSWtGRm70+1e2jURGDMBB4E1m1KsE0g9hLjZ8dMRrmJQPXM/lnAoR6BmM+83jKhyolAXwTs9v7GB8PaziA2wGOBk/saqfoRgZ4JPFo/5mtvf5nZugRiTvZ6f3teQE0ExkbgOOCUtqRCBLIi8MLYyCifyRP4A/C2LgohArEYFsheUT+UJ8C68tLfRaCNgL1g294F3NlCBbIs0DzfwN2ZjAxEoIPAncAXq3WHff0qqMUKxILaM8sb1z87s9j/q4nAEAk8X50p7qp3Y21H9tLYSxf/B6XdvudwsL4TAAAAAElFTkSuQmCC;" vertex="1" parent="1">
          <mxGeometry x="174.4" y="382.5" width="70" height="70" as="geometry" />
        </mxCell>
        <mxCell id="rij7Vu_CJ73uvpwCJqc9-9" value="内网服务器" style="text;html=1;align=center;verticalAlign=middle;whiteSpace=wrap;rounded=0;" vertex="1" parent="1">
          <mxGeometry x="-385" y="301.5" width="65" height="30" as="geometry" />
        </mxCell>
        <mxCell id="rij7Vu_CJ73uvpwCJqc9-10" value="内网测试机" style="text;html=1;align=center;verticalAlign=middle;whiteSpace=wrap;rounded=0;" vertex="1" parent="1">
          <mxGeometry x="-384.5" y="464.5" width="65" height="30" as="geometry" />
        </mxCell>
        <mxCell id="rij7Vu_CJ73uvpwCJqc9-11" value="网闸" style="text;html=1;align=center;verticalAlign=middle;whiteSpace=wrap;rounded=0;" vertex="1" parent="1">
          <mxGeometry x="-40" y="385" width="65" height="30" as="geometry" />
        </mxCell>
        <mxCell id="rij7Vu_CJ73uvpwCJqc9-12" value="" style="shape=image;verticalLabelPosition=bottom;labelBackgroundColor=default;verticalAlign=top;aspect=fixed;imageAspect=0;image=data:image/png,iVBORw0KGgoAAAANSUhEUgAAAMgAAADICAYAAACtWK6eAAAAAXNSR0IArs4c6QAAF51JREFUeF7tnQn4fsd0x7+WElvETqyJNpZQUtQWqkSJEkWEhiC2aFFqCxpb7CIpgtppLBFJW4QWQREERVG7ElUVSyLEUjv3k9738fb9z9z33jsz95577znP83v+T/K7M3PmnPn+5syZM+ecQ04uAZdAVALncNm4BFwCcQk4QHx1uAQaJOAA8eXhEnCA+BpwCfSTgO8g/eTmrRYiAQfIQhTt0+wnAQdIP7l5q4VIwAGyEEX7NPtJwAHST27eaiEScIAsRNE+zX4ScID0k5u3WogEHCALUbRPs58EHCD95OatFiIBB8hCFO3T7CcBB0g/uXmrhUjAAbIQRfs0+0nAAdJPbt5qIRJwgCxE0T7NfhJwgOwot4tLuoGk60vaZe3n3JK+Kum/6n8/Kelz/cTuraYiAQfI/2nqOpIOlPSHkvbuoLyPSzpB0kmSPtqhnX86EQksHSAA4/71T6rKjpf0t5JOSe3I29uRwJIBcpSkvy6gCkBC318v0LflLi8qaT9JV5L035KOlfRjywy34W2JAOFc8bb6jNFGRn2++aKkQyS9p0/jCbYBGM+twbFi/yxJx0h6vqQvTHBOZ7O8NIDcSNIHBlLWTyTtuxCQ/Gs1z5tF5Hq6pCMkPWsguWcdZkkAubqkz2SVXrvO/njmILmGpP9oIQrOaAe0+M7UJ0sByFjgWCkb+/xMU5rPxwym5Itadjc5kCwBIIDjDZL2bKnEEp9xFmEnmSO9WtLdO0zsJfX5rEOT8T5dAkC6KrCUNvBsPbxU5yP2+xVJu3UcH+/hczq2GeXzuQME78qbRpFseNDbSXqLIX5SWSHa4EM9O7m2JKIRTNPcAdLkXRlDMSfWdwVjjF1izIdJOrJnx9wX0d40zRkgB9V+eGsKmNMu8g+S7thTwGdIYhcxfaE6Z4BwML9zT+WVbDaXXeRcVYjONyRdMkFYfynp7xLaF286V4DsVLtV+dca/ahaFJeSxL9TpptLelfiBNiB9k/so2jzuQLkrnUsUFHhJXR+a0lvT2hvoenjJB2eyAh3Q9wRmaW5AoQD4EPNSl16iiQW2JSJeLZbZZiA6TVomrkE4f+TpD9LaF+66dQvDi9UXfadVsVYXSCDoEyvQdPMJQj/32sPSUIXRZt+orqf2avoCGU7xxP35kxDmF6DpplLUAC2LWHtVomnu11vny3N5RmSDs3AEMGjBDuapbkC5H8lWfRgrRbC96r3Excxuyq2M3Zyx6fJsR7NBy/OFSDYx5ferudRv5iq7HFRI98c/D+p0sATR9XClsFzTNLi/Mg2clWLjNU8TdnEyulC55HVew3rKctfAYvzI3ECqXus0pS9WEdLelAGwf5KErfxpmmuO8jLJd3bsORfVeXXOtgwf02skeoohweOW/h9rMtgrgC5m6TXGBa+eds7IjsylpyaSa6HSXpqpr6KdTNXgPxelQiOzCJWiVeOU8zKeB9JL8sk1BtL+mCmvop1M1eAIDASCVj0sX/Y+PmoabG9IpNp+DNJ5y22qjN2PGeA4D58QkZZ5eqKGCxisaZI5LfaIwPjBGoSsGme5gyQy9T5cnc1pIWfSiI3FwfdqVHOzDCPlvTMKQhgzgBB/tZ2EUI0HjOFhRHgEdcuLt4cxFv2j+ToqHQfcwcIuwiZFC3EPX25egNyQ0nfKa3UQv0flynxGw/FLliIx+zdzh0gCMyKy/eB1fPUF2bX4HAd8nb8shmGI6sL0cCToCUABEWM/YCKd9e8v54qXVfSv2Vi/hEJmVAysdC+m6UABIm8ozK3btleNNm+fGvlLLhttt7G6ehRGQ/V1GSZjJNiSQBhafGX/AEDrrEpx1ytiwmz6E8zyO37xt/p7DDFpQEEAQzl2XpIlZDgeRkWlYUucj1Ao7DOFSxMqC0PSwTICiTkh925raA6fMcioKwbSQ3mQDfNHJJOMg2K7UyClgoQlMPFF6kviS/KRWQup6JSm3oZucYs3U/uHffnldPkwtWTXV59mqclA2SlHFLX3LN2Pfb1zwMMfj5mXuPdGSyR33gyF6YOkN8uGMBBqqDb10GOhHbH3rWzQ7x/7edr3dfdJFqcR9IPq7D03ynA7VWMR1yfPWUHSLPmedcOUH5RJaIj0cLqh/9eAhFQ+C+FJjqJR2MOkELan0m3FN58ZMG5cC/1zoL9J3ftAEkW4aw7IKDwegVnaD7s3QFSUPsT7xpPEyZlacKLyEMskzQngNxC0uWrJ6GXq6N3d88o8e9WhSr/swp8/FL9LzfkcycK41CeIAfhCYsVMSW7Im9kzsoxUO4+pg4QDtAUyeGnpCmwKXcuAynQg/08lwvBzTlyn0MEciqx8NENrxFjxF0LiSzM0ZQBcoSkv8iUYTxFMVRrRblDmCMpfHZty192LlNTaXXOeFrDYzGzOXqnChCE/iepmsvYnmztgOSNGfscsysemlFeLQetUhzRJ1G8sZSwJteiSaa2aOWbdQmzHMrL2QchFLex7rZsOeGcj8zWq2k13cqbXIsmmWpQIjW5ec9slfiry038R60y2JKvXOl9OH/gOFkdwB0gLRXQ5zPOG1N4svqpujQZO91UieTaV8zA/OZjMQdIBqGGusBF+O5CfZfo9nX1W/gSfZfu88q1KzvHOJhqyGJFDpAcUg30wXto3kVPiR5bZQ98+pQYrnm9Xx2ZnMo6AZ2/v9GJAyRVqoH2B0p6bYF+h+hyP0knDjFQxjGOlUQNkFQi/xdh7eu0aIBwWcfrM8LGuUTLFQWaq9xwqsL7tOfmnRt+LhanQt+WdIlEZnF736QOlXeA1G+vH7wh1By3ozxmmvpNNSWpCduYAl2z4hUnQyrFMrcvcgeJ1Yz4cV3okZLMfQnTChNr6vRkSY+fwCRINEFkQArhbXxRpINFAoQ6c0w8RCE7tK3wcyYraztmye/uVB1a/7HkABn6Tn1/fvct50UHyIaSMI/27am4Z0t6eM+2FptxDuGMxh2DVbpXdf/xyh7MEe18B0nv29J2kQBBJhRECb1b/okkYnC6BvLtIunTmXLB9tB3sSY4LghHsUoXrRf5nh0YJCQeE/KTLdosFiDcmMYUj3frhBbCW/+E7IdkQZwjUReD+hhWiQheivw0uXq/VV8AcgnYJaxmsQAhCdtREY1zYOPg1oVKpJrpMn7pb+9Su8JLj5PS/yphBU4YfrACMA9XP1gHXWmxAKEWYCxZ2uclXa2DJLk3MP2Qv8NcYp+eXtcK4ZXikmixAEHJRLJy3ggRVWfbLoaXSrrvAlYNsWX8MVgSLRogx0g6KKJtamO0OVMQQcpOdKGFrBo8dSXT6lgT46IBcnBDdoq2t8k56+BZWxwxfrgIPS2RWao/td2hE4dKar5ogDSFSVOX75ItREtg39SLzbSYZpFPuIugBjvucSpqpYKuBJOLBggCbapjt+0cgnnFX8Fzl9DMwvrkPHhI9USAwjeWaPEAaQqVvoekVzdoi5oaL7akzRnwskqYYGUqiwdI07PYbYUsuZGdStSrlQXXho8/qN7JpwSMthmj7TeLBwghCtjAIeKNwF6R3+Eexrw6f1tJj/DduybqliXn1N49wn1KiHjxAEGoXIJdLCJdABCqLNQ3SK6EEmN98gCIQpaWw0RivB9ZPV6i/PLY5ACRhEuXQjQh4mIslHzh9ZIIv7BKKzc1BWWIO9vHKqMRvqxcSjpAJDXFZR1WRf0+dUOJ7DaYV0TwWqX15GckWgYklvndlCNxVBcxIFwHSJWkgELxsQjPzTxJ6OyAKlbrOAPKi7HwQUk8IV2nHC/vhp4y8XDExY1JDpBa+j+KHLi5zNo8nxxdnVu4QbdKsVeRuKx5QTcVwkGCo2RMcoDU0udhEGZJiK66kQofF+S1x9TalrHxzH028A11SIg6phjlFAh+/2dkRh0gtQL4q0u6+xARs0UBR4jb9S+OrLSm4beVCOOZ6bZ35ryf4LwydoQAJap/PbKs+UMYO7vlKkqEvE/JlPyuWJVb/O4nR5RBPXHCICDrt+eHV4vqCVsWFXFPD418QwnlvrXXR17Lkx+es+3xqbMomd39l5LOGWCQi0TyL0HW7XgCJ3EsbKOTAq5fdsY9tjX03xeVAAGyBMr2ppIAabI3d64ylvxA0qn1c87eEyjYkCelJDEIXWyGhmWnIW3OitjqearqNJ4ESHqeZLqVBAh5WQ+NyIaMiRwYY2Ep44n0tyO/txIuOb+6EAAh+fOutUsVh4TTeBIwvYM0HWBZSGdULl9cvFaJC00uNrsScWWcsdhRyC5pOb6s69ym9L35Mwh/RWNuRbxD3JVYjt6NhcV0WSTEb/EUGVONvGH8lPBm/aIqkPnTWqbY3GdW4Ob/QV13wS7zG/vbkPk0CS/WSnBfq0twbQqSkly/Mh6ukdv8JN9U6D6l5CJrSgtbctyh+s6tox34Lj0Abrb9I9KiRFms4ulQAo6Nw1+h3cZmIsP4DpBEIZYGCLl1ydwRImpncFFokdi68YBMnRwgiRosDZCmC8OvVPb57on8l2rOTT83/lMnB0iiBksDhEMpia1DxGEytZJR4vSjza295e47TwdIX8nV7UoDhGGIAeJd9CZxEbdTIv+lmq/Hi5UaY4h+HSCJUh4CIH8viYwmU6LkG1gjk3WAJCpiCIA0RfZyT3LZxDmUaH69jmn9S/CQo08HSKIUhwBI04261YC+bUnuEsU+WHMHSKKohwAI8Uifi/BJsKLF+wacB2RnmTo5QBI1OARAYDH2UIdFePHEOZRojvdtFapRov+h+nSAJEp6KICwg4QiW4kfOm/iHEo07xIi/TJJPDHmvb01coAkamQogPAslbPIXIl39besI5QtzdEBkqiNoQDC+3S8WSGiPPLlE+dhoTm5hWNxZ2Px5wBJlPxQAOEehPuQEFn1ZPURrTXvlwOkjxbX2gwFkBtKIgFbiOb0NPWvjD0Cc4BMBCDkZMKUCpHlsPeu4uWwHqsX37WvHN87QBKlONQOApsxV+/3q5JhF06ch6XmlswsB0jiyhgSIOwg7CSbZNXV21e0lswsB0hfLdbthgQIZxDOIpvEzjIkH4ki29rckpnlANmqruYPhlyYb5B05wg75J46X+JcLDW3YmY5QBJXxZAAOaquHRJi2WpUb1/xWjGzHCB9NTiCidVUWIcCOr+bOBdLza2YWQ6QxFUx5A6CeYWZFaI5XRau5mfBzHKATAggTcr6woTqbLQVuQUzywHSVluR74bcQZYGEAtmlgNkJgCZo4mFasY2sxwgMwHI3A7pK7WMbWY5QGYCEMtJ5FJEPLaZ5QBJ0d7AN9hNyqJU2Zj08zo7OpeVuePCxjSzHCCJq8rKIT1xGtmal7jRH9PMcoAkLg0HyI4CPE0SRXBy0ZhmlgMkUYtDAmRfSf+cyO8QzUtUhRrLzHKAJK6YIQHyIGOv7WKi4zxC2p+cNJaZ5QBJ1OKQAGmqJ544jazNS4Tfj2VmOUASl8aQAHlzlen9dgF+eTB1ytr/p57fLvVf8fNIOlfiHJuaM84mAZA+FW63sTmGmeUA2aaVLb8fEiCfqYIVqdO3SVwSjlFp6nWS/jwiH7K7U+c9J41hZjlAEjU4JECoBxLKovhuSVSUHZqOlPSwyKB7STopc1rUMcwsB0jiqhoKICSGo+JtiMiXda/EefRp3lQ/8baSKIFArfOcNLSZ5QBJ1N5QAGlS1FMkPS5xHn2aH1iZdq+NNDxE0hslfatPxw1thjazHCCJChwKIA+W9LwIr/esinkekziPPs2bFs/h9e7xCUnX6tN5pM3QZpYDJFF5QwHkpZLuG+H1RhterMQptW5+FUmfj3z98prf+0l6Sese2304pJnlAGmnk+hXQwHkQ1WJgOtHuKA+yBmJ8+jT/IKSCCvh3016u6Rb10VGic/KSUOaWQ6QRM0NBRDCN0JpfbDxL504h5TmPNQKuZg/LemadcdvzZxOdEgzywGSsjoGCncnW8mXIny+s66rkTiN3s25ELxpoPWZ1ZmJC0uIXLuAJCcNZWY5QBK1NsQOcsfqrzG1M0JErizcrWPRsdU55K6RwS8giZ0PiuUV7sv3UGaWA6Svhup2QwDkiQ33CQdLelXiHFKaNyWz22Nt5+OgzoE9Fw1lZjlAEjU2BEAI2UBRIbqOpI8nziGl+SMlPSvSwc3Xwk3wtH0gZaBA2yHMLAdIotJKA4Sw8Z818EgwIuHlY9HdqoyOr4kMftDG776TOfRkCDPLAZK4skoDpElBVL4NBS8mTqlTc4ISiQUL0aMrz9sz135B2AnmYi4awsxygCRqqzRAms4fr6iqTt0nkf/U5pwzyOoYoqOr0s78lV8Rbt9PpQ640b60meUASVRYaYA0nT8INX99Iv+pzfFUfbs6h5w/0BGlq++08f9zh56UNrMcIIkrpCRAdq7KHVBeLUZcEOYOBuwjDt6jXDnQ8COB2//cz4ZLm1kOkD4rYq1NSYAQqsECCBGeKzxYFuh9km4SYISaJZsl464k6dTMTJc0sxwgicoqCZAnSzoswt8zqkRtj0nkPVfz4yQdEOksJJ/coSclzSwHSOIqKQmQpvMHKYDelsh7rubPkfSQSGfsIOwk60R4fs7LzZJmlgMkcZWUAsilJFH/PES/rOOczkrkPVfzpstCIpA5i6wTMVq5o49LmVkOkMRVUgogd5CEFyhE7BzsIFao6WUhXqzQPHBREyaTi0qZWQ6QRA2VAsizG4IQ/0bS0xL5ztn8j6pQmPdEOowt3KYAzD68lTKzHCB9tLHWphRAmh5IoTTCzK1QUzg+N+ncqG8SITTfyBx6UsLMcoAkrrISACFlTiwAkXPJFUaOv9oUGQ+5OFOEHnQRp0VMVoieu3HTnqiKs2/tub3PSQ6QRGmWAMih1VNV3LghOkES1W6t0ZerxBG7B5jCE0dUb4j2qXNn5ZpLCTPLAZKonRIA4ZVgLBFcib+SiSI4u/n7q8V+40BHvIQkXitGuUNPdq3fyeeYE304QBIlmRsgTcF/uHf5PeXWrBH120M7Gy8KideKETm9cDrkInIXvyVXZw6QdEnmBsgDq4Pr8yNskbz69uksF+mhKfM89x68UQ8R9yQ4JHLRk6qOcobU+w6SqJncAHlTdUDfL8LTA6rKTS9O5LdU80dUO8URkc4JcyfLSYxOlrR3JsYcIN0EmXv97jB6zgGwn4mMDXmDyC2FefX1bvMf7GtC78n2HiKCLsmTFaNHbTysSmHaAdJNejnXb3DknAOQgPqVkflZ9V6t2CX1T+xuhoyQZFqMEa8iKe2Qg7btVl3HcBOrq8Q2vs8JEBJBE7YRorGzl2wTE+9B2P1CxFNbcvU2Uaw40LZx13//4SqA8wZdGrT41gHSQkhNn+QCCMGJPF0N1Rj/niTy4PJyzyrtJAk+Q/VLSPlDtvcmolzCiYmTY4zceYAdIIlKyQUQzBASVIcI257sIdYJ9/NuASZ5/wEAtlHKLvKxyr173W0D9Pi9A6SH0Nab5AJI0+LgMdLxiXwO0TzmjeIykPCZbYSZRhkHcmh1JbKrxAImu/a1/r0DJEV6mXLzXqLBfOLweo1EHodqTgKJuwQGO10Sc2xD3JkQCt/lvqcUOODXAdJGaw3f5NhBmpTApReuyylQU83CrnK6fxXty0/Tu3vyFXPuyP34yneQjKutq+JDQ1+mDv0O/W7P6r33ZzPyW7KrpjcefeXEwzEqVOEKxgHAPRAJ8wgn+WrJydR9U3uFjJBzJEqH9zFnO8mir+I3BwmdQUiR84JO3Iz/cegcsplAbnwuu3EQizPr1ou9rwfJq5YLIIgPc4pMieS6wl2Z22U5hIrYDTF7yOTOvQSZFHPGRg0xh80xdqmz6+8fSGM0Bj+pY+I04eI2FvOX2v//a58TIFkZ885cAhYk4ACxoAXnwawEHCBmVeOMWZCAA8SCFpwHsxJwgJhVjTNmQQIOEAtacB7MSsABYlY1zpgFCThALGjBeTArAQeIWdU4YxYk4ACxoAXnwawEHCBmVeOMWZCAA8SCFpwHsxJwgJhVjTNmQQIOEAtacB7MSsABYlY1zpgFCThALGjBeTArAQeIWdU4YxYk4ACxoAXnwawEHCBmVeOMWZDAbwAs0Jn2mWu5rQAAAABJRU5ErkJggg==;" vertex="1" parent="1">
          <mxGeometry x="171.89999999999998" y="70" width="75" height="75" as="geometry" />
        </mxCell>
        <mxCell id="rij7Vu_CJ73uvpwCJqc9-15" value="外网测试机" style="text;html=1;align=center;verticalAlign=middle;whiteSpace=wrap;rounded=0;" vertex="1" parent="1">
          <mxGeometry x="177.39999999999998" y="143" width="65" height="30" as="geometry" />
        </mxCell>
        <mxCell id="rij7Vu_CJ73uvpwCJqc9-16" value="外网缓存源代理服务器" style="text;html=1;align=center;verticalAlign=middle;whiteSpace=wrap;rounded=0;" vertex="1" parent="1">
          <mxGeometry x="176.6" y="300" width="65.6" height="30" as="geometry" />
        </mxCell>
        <mxCell id="rij7Vu_CJ73uvpwCJqc9-17" value="外网正常服务器" style="text;html=1;align=center;verticalAlign=middle;whiteSpace=wrap;rounded=0;" vertex="1" parent="1">
          <mxGeometry x="162.4" y="455" width="100" height="30" as="geometry" />
        </mxCell>
        <mxCell id="rij7Vu_CJ73uvpwCJqc9-18" value="国际互联网" style="text;html=1;align=center;verticalAlign=middle;whiteSpace=wrap;rounded=0;" vertex="1" parent="1">
          <mxGeometry x="567.5" y="395" width="65" height="30" as="geometry" />
        </mxCell>
        <mxCell id="rij7Vu_CJ73uvpwCJqc9-19" value="长城防火墙" style="text;html=1;align=center;verticalAlign=middle;whiteSpace=wrap;rounded=0;" vertex="1" parent="1">
          <mxGeometry x="374.5" y="400" width="65" height="30" as="geometry" />
        </mxCell>
        <mxCell id="rij7Vu_CJ73uvpwCJqc9-20" value="" style="shape=flexArrow;endArrow=classic;html=1;rounded=0;" edge="1" parent="1">
          <mxGeometry width="50" height="50" relative="1" as="geometry">
            <mxPoint x="-315" y="266.5" as="sourcePoint" />
            <mxPoint x="-207.5" y="341.5" as="targetPoint" />
          </mxGeometry>
        </mxCell>
        <mxCell id="rij7Vu_CJ73uvpwCJqc9-21" value="" style="shape=flexArrow;endArrow=classic;html=1;rounded=0;" edge="1" parent="1">
          <mxGeometry width="50" height="50" relative="1" as="geometry">
            <mxPoint x="-315" y="436.5" as="sourcePoint" />
            <mxPoint x="-207.5" y="371.5" as="targetPoint" />
          </mxGeometry>
        </mxCell>
        <mxCell id="rij7Vu_CJ73uvpwCJqc9-22" value="" style="shape=flexArrow;endArrow=classic;html=1;rounded=0;" edge="1" parent="1">
          <mxGeometry width="50" height="50" relative="1" as="geometry">
            <mxPoint x="40" y="340" as="sourcePoint" />
            <mxPoint x="162.4" y="290" as="targetPoint" />
          </mxGeometry>
        </mxCell>
        <mxCell id="rij7Vu_CJ73uvpwCJqc9-23" value="" style="shape=flexArrow;endArrow=classic;html=1;rounded=0;fillColor=none;elbow=vertical;entryX=0;entryY=0.25;entryDx=0;entryDy=0;" edge="1" parent="1" target="rij7Vu_CJ73uvpwCJqc9-4">
          <mxGeometry width="50" height="50" relative="1" as="geometry">
            <mxPoint x="262.4" y="280" as="sourcePoint" />
            <mxPoint x="540" y="320" as="targetPoint" />
            <Array as="points">
              <mxPoint x="420" y="280" />
            </Array>
          </mxGeometry>
        </mxCell>
        <mxCell id="rij7Vu_CJ73uvpwCJqc9-24" value="" style="shape=flexArrow;endArrow=classic;html=1;rounded=0;" edge="1" parent="1">
          <mxGeometry width="50" height="50" relative="1" as="geometry">
            <mxPoint x="255.59999999999997" y="427" as="sourcePoint" />
            <mxPoint x="368.7" y="382.5" as="targetPoint" />
          </mxGeometry>
        </mxCell>
        <mxCell id="rij7Vu_CJ73uvpwCJqc9-30" value="" style="shape=flexArrow;endArrow=classic;html=1;rounded=0;" edge="1" parent="1">
          <mxGeometry width="50" height="50" relative="1" as="geometry">
            <mxPoint x="450" y="380" as="sourcePoint" />
            <mxPoint x="560" y="380" as="targetPoint" />
          </mxGeometry>
        </mxCell>
        <mxCell id="rij7Vu_CJ73uvpwCJqc9-31" value="" style="shape=lineEllipse;perimeter=ellipsePerimeter;whiteSpace=wrap;html=1;backgroundOutline=1;rotation=45;" vertex="1" parent="1">
          <mxGeometry x="490" y="365.93" width="30" height="30" as="geometry" />
        </mxCell>
        <mxCell id="rij7Vu_CJ73uvpwCJqc9-32" value="" style="shape=lineEllipse;perimeter=ellipsePerimeter;whiteSpace=wrap;html=1;backgroundOutline=1;rotation=45;" vertex="1" parent="1">
          <mxGeometry x="296" y="389" width="30" height="30" as="geometry" />
        </mxCell>
        <mxCell id="rij7Vu_CJ73uvpwCJqc9-33" value="" style="shape=flexArrow;endArrow=classic;html=1;rounded=0;" edge="1" parent="1">
          <mxGeometry width="50" height="50" relative="1" as="geometry">
            <mxPoint x="204.9" y="174" as="sourcePoint" />
            <mxPoint x="206" y="224" as="targetPoint" />
          </mxGeometry>
        </mxCell>
        <mxCell id="rij7Vu_CJ73uvpwCJqc9-34" value="访问特定内网IP和端口" style="text;html=1;align=center;verticalAlign=middle;whiteSpace=wrap;rounded=0;" vertex="1" parent="1">
          <mxGeometry x="-315" y="341.5" width="80" height="30" as="geometry" />
        </mxCell>
        <mxCell id="rij7Vu_CJ73uvpwCJqc9-37" value="" style="shape=image;verticalLabelPosition=bottom;labelBackgroundColor=default;verticalAlign=top;aspect=fixed;imageAspect=0;image=data:image/png,iVBORw0KGgoAAAANSUhEUgAAAMgAAADICAYAAACtWK6eAAAAAXNSR0IArs4c6QAAEstJREFUeF7tnQn0fkMZxx+JkxMiKUKo5CBFdlKKFNm3Qh1bZN+lUqeNStnXbCeyZQkhQqKyZM9+ZMu+LyFC0fv9e26u/+9935l755m5c+/9zjnv+R/HzPPMfGc+v7l37swzUwgTFaACIxWYgto0rsBHRGRVEVlFRG4QkRMH/31d47ViBSYpQECaGwizisgu+pu8FvuKyH4i8nBz1aNnAtLcGNhGwZh7TBX+ISIA5ZDmqknPnEHSjoGVFYzPVnB7qc4m51Qow6xGChAQIyEdZuZTMDYLcHeczig3B9hg0YoKEJCKglXM/g4FY1cRmaFi2WHZX1BI8Oj1vIE9mnAoQEDiDZENRARgLBzBxS0KyrERbNNkSQECYj8cltZZYy170xMsnqug4D2FKYICBMRO1HHLtnZehlvCShceu7DyxWSoAAGxEdNn2dbG02grjygk+H7yemxnfbFPQMJ6us6ybZhHd+krdVn4dHdW5nApQEBcCg3//xbLtvU8+5c6WUG51r8Ic06uAAGpNiasl22rea+e+xWFBO8nT1YvzhIExH8MxFy29a9FvZx36vvJEfWK97cUAXH3fcplW3dtwnJcpKBcEGamP6UJyOi+bnLZNvYIPEpBuSO2o7bbJyDDezCHZdvYY+vp0raVl2M7a6t9AvLWnstx2Tb22LpeQTkptqM22icgb/RaG5ZtY4+vM3TF6/LYjtpkv++AtG3ZNsXY2l9nlIdSOMvdR58BafOybexxdZ/OJgfFdpS7/T4C0qVl29jj6886m5wd21Gu9vsESJeXbWOPr18pKDfFdpSb/b4A0odl29hj61+lZeHnYjvLxX7XAVldRHYSkU/nIngH6nGrgvLLDrTF2YSuArKIgrGhUwFmqKvA7xSUS+oaaEO5rgHyPgUDs8bUbeiADtTxUF3xuqcDbZnQhC4Bsp3CMS4YWxf7MIc2PVraVv9aDhWyqkMXAFlTwVjWShTaqa3AVfrYdVptC5kVbDMgiykY62emKasjcoqCck3bxWgjIO8vvWdM2fYO6HD9/1NaFn6ire1sGyA7KBxztlXwHtb7LgXlF21se1sAWUfBwDYRpnYq8AcF5fdtqn7ugCypYKzXJlFZ17EKHK0rXre3QadcAZm99J6Rax3b0L+51vGZUpC7l3KtJOqV2+BDffCRDz9AwtRtBXDlHCJBnpBrM3MCBI9RAAOPVUz9UuAsnVEuy63ZOQCCF2+AgRdxpn4rcICC8mAuMjQJCJZqAQaWbpmoQKHAAwrJgTlI0gQg+LhXvGfgox8TFRimwF8UlN82KU9qQLAtBHBgmwgTFfBR4HgF5UafzNZ5UgGCjYQAAxsLmahAVQVeLC0LP1u1cEj+2IBg6znAwFZ0JioQqsBtuix8TKgh3/KxAMFhpeI9A4eYmKiApQLnKSgXWxodZisGIDjmCjhw7JWJCsRU4HB99Lo7lhNLQBAYAWAgUAITFUilwOOlbfX/tXZqBci3BmfAf2xducj2cEYBEToWEJGZI/ui+fgKXK2gnGrpygIQPFJlu5dGxUIE8+tEBC95gAL/lmPPziYi8yss+PfjIrK4pdC0lUyBXfT9xMShBSCIj7SxSW3sjeDe8IP192pF88uJyGoisomIzFCxbJuz4yQgQvrgh6vbioR3yiVE5AuDv9TTZd7Az4vIhRZ1tADkFv3La1EfSxsIHIDl5ccCjS40uHf8eyKyRqCd3Ivj+miE8DlfRHC5zqiE2RZabJVpv6Peu4nIPhaCWwCS46X1gMP6kNUeIrKnhegZ2sB3BfwxqXI2Y3oR2Vn/eOTWJOwONvko3UVAztFHoxidtspg+Rr2u5QwE4ScFwdcm2YmyKUi8hmLOnURkFVF5FwLcUbYmFZEno9oP6VpXJaDWSAkvX2woIEPd58LMWJcloCMEDTm7FF2iTMsbb+qDGculhIRi7MX84gIgsbNaDzQ65ojICOUiz17lN1i5a7NEc4xc2AGsUoIFmf93le3bgRkhHIfEpGUQZS/LSJ71e3FBsvhI+l7jf3n9AeDgAzp3BcaWp8/RERwQU+bEq5Ws74zZSpdBcsh2iUBGTIa8T1mwYZGKa5QNllWTFT/I0Rkywi+cFcIPrA2nQjIkB4wE6VG72IvFxYI8KW5DenrInJkhIoSkCGi5vKhsElAIAv2bwGSOSIMPGuT+EYAvawTASEgY8fUSgpJDs/h4ypKQDz/NHTpQ2HTM0gh+WaDqJCIP5tzIiCevUNAPIWqmO27IvLDimVSZicgnmoTEE+hamTDcdAYK0U1qjKhCAHxVJGAeApVMxuCnuFMSW6JgHj2CAHxFKpmtln0pX3RmuVjFSMgnsoSEE+hArJ9QiHJKcwqAfHsUALiKVRgttzOkRAQzw4lIJ5CGWTbVs/GG5gKNkFAPCUkIJ5CGWXD9vIdjWyFmCEgnuoREE+hDLOdPQhBhHMrTSYC4qk+AfEUyjDbXHpEdT5Dm1VNERBPxQiIp1DG2ZZXSBDku4lEQDxVJyCeQkXItoWI4FxGE4mAeKpOQDyFipRtbxH5RiTb48wSEE/RCYinUBGznS4ia0e0P8w0AfEUnIB4ChUx26z6PoIQp6kSAfFUmoB4ChU5G+5wRLDoVEGhCYhnhxIQt1Abichx7mzBOVKGzSEgnt1FQNxC4VZV7KW6zJ01OMePROQ7wVbcBgiIW6NJOQiIWygEpbhZIbnfnT04x0kigvvkYyYC4qkuAXELVURtwTsCZpLYaSZ9aY95wxUB8exFAuIWqhzWCMdot3YXCc6xmL60x7o7kYB4dhEBcQs1edwvXFj6U3ex4BwIBI2A0DESAfFUlYC4hRoWGA8Xl+JdIXbaPRKMBMSz5wiIW6hhgPwz4cpWjOgoBMTd75NyEBC3UKNCq6Za2cINTrgxCze3WiUC4qkkAXELNS72cKqVLdzghLi/87qr65WDgHjJxBnERyZXcO5UK1sr6MqWxRkSAuLT83zE8lLJBQiMpFrZ2tzo2gIC4tX1nEF8ZPIBBHZSrWzhyjdc/RaSCIinenwHcQvlC0jKla3Q7SgExN3vXMXy1MgXEJhLtbKFCzjP0mucPZvxlmwExFM1ziBuoaoAAmupVraWHNxqdaaIIP5v1URAPBUjIG6hqgICi6lWtupuRyEg7n7nI5anRnUASbmytauI/NyzLUU2AuIpGGcQt1B1AUm5slX1rnYC4u53ziCeGoUAkmplC9tR8NL+Rc82ERBPoTiDuIUKASTlyha2oZwhIvO7myQExEMkZCEgbqFCAUm5srWyiCDO1jSOZhEQd7/zEctTIwtAUq5sbSUihxGQSbNkcOIM4pbQCpCUK1s/EZFvjmkaZxB3v3MG8dTIEhC43GCwbf1kT98h2U5UX8NsEBBPZTmDuIWyBqSIs3W523VQDmxHwUv7MkOsEBBPaQmIWyhrQODxJl2SfdDtPijHUiJymojMNpkVAuIpKwFxCxUDEHjFCcHV3O6Dc2Ab/gkEpJ6OBMStWyxA4BlfwLdzVyE4B8KZIqxpkTiDeEpKQNxCxQQE3nGBTtW9VO5aT8xxpIjgRCISAfFUkIC4hYoNCGrwpcEX8FPdVQnKge0o2Iq/IgHx15GAuLVKAchTGmfrr+7qBOXAdhTs2cLHxEuDLA0vfMnA7nIR7FY1ibbxQ+FkqpmJMpndFIDA5Q26svVI1dFQMT+2o7xIQPxU4wzi1ikVIKgJ/rqv6a5ScA78lecM4iEjAXGLlBIQ1OYgEdnBXa3aOXAn4oIicmFtC6ML8hFriDapB9Co7mn7I1a5XbuIyH4RBnBhEi/qBMRDYM4gbpGa+gOwrm5dd9cwnxycQTiDJBuNj+vK1jXJPIY7IiAEJHwUVbBwrULyWIUyTWYlIAQk+fj7jYisk9xrPYcEhIDUGzmBpfYXkZ0DbaQoTkAISIpxNtTHjiJyYGPe/RwTEALiN1Ii5VpLw41GMh9sloAQkOBBFGIA21BwV/v1IUYiliUgBCTi8PIzfZVC8qRf9qS5CAgBSTrgRjnD1nhskc8tERACks2Y3EdEdsumNm9UhIAQkKyGJI7r4thuLomAEJBcxuL/67G6iJydSa0ICAHJZCi+WQ2EDsLK1o0Z1IyAEJAMhuHEKlyhkDzTcO0ICAFpeAiOdo9wpghr2mQiIASkyfHn9L23I2i100BgBgJCQAKHUPziW+slovE9TfRAQHoGyAyD8+FNP9fXGeixAsO56nL1IPbWYq5MCf6/2fFrHrkd31trZL45cFTtzQZIxcH89GDH8YwVy8TIbtZ+AjK+e/C1GgEU2ph+MKj09xNWfC4RuTehv3GuCMgQdV4VkelE5GXDTsrlmbpuk746JLJ7XVuucrhh91xXpkT/n4CMEPpnIrK7USfgTo3bFTojk42Y2UlEDkjg+dcZbaAkICM6/FERWVxEHjAYEK57/gxcJDMR+3Fr0UHY1JyirxCQMUPL4s4N3DV+a7Lhm8YR7izcfvDDi7RlmkkfrZa0NBpoi4A4BFxPrx6rq/P9IjJH3cIZl8NhK8wm5xvV8d0icqyIrGpkz8oMAfFQ8ujShTEe2SdlWUlE8Cw9vW+BlubDbHLwoL0Apm76sojsMYj++NG6BiKWIyCe4uK+DcS4xUWWroR8eKHtU8JMUvzu8mw44voCjk088zeRjYBUVP0JheSOweUxiFKIH94zFij9O3NFm13LjtkEX8LxL1bvsNDxnIjMro+bOHeCD6f43pF7ygoQXPyyUO6KsX69UuAwEdnGosUWX9IPF5EtLSpDG1TASIEtBnfDH2VhywIQfHfAcyxWNJioQNMKYHkeq5i3WVTEAhDUA9eG7SUi81lUijaoQE0FcCkQFlpM4EAdrACBLezi3FV/U9dsIItRgToK/H2wJWhfEcFd8KbJEpCiYth2AFByDGxmKh6NNa4ANqgCDPyiRJqMAUihGp4DAUoOB2ga70lWwFwBfNAFGLhkKFqKCQgqPVXpsYsv8dG6sVeG8fEXYJyeotWxASnaMK+C8rUUjaKPTiqAj7vF49RrqVqYCpCiPSsrKDgzzUQFfBXAhz/AcY9vAat8qQEp6r2tgjKnVUNop5MKnKdg/LGp1jUFCNqLE3t4icfVYkxUoKwAvmNg8+gxTcvSJCBF2z+lgRFWa1oM+m9cgZdK7xnPNl4b4w+Foe3ZWGcU7LBl6p8CJygcf8up6TnMIGU93qWQINTONDkJxbpEU+AyfZw6M5qHAMO5AVI0ZWF97NowoG0smrcCD+mMgTvgs025AlIIhgM6mE0+ma2CrFgdBQ5SOHD2P+uUOyCFeDsoKF0MpJD1ADGuHG7CwurUn4ztRjPXFkAgAI5+7tzDc+PROj+h4Zt1xjguoU8TV20CpGjwMgrKWiYK0EhMBZ4vLdu+ENNRLNttBKTQArcpYUZZJJY4tBukAOJl4XEKs0drU5sBgeg4mAVI8CL/ntb2QrcqjvcL7Js6pwvNajsgRR/Mo6AweERzo/I+BQMB6TqTugJI0SErKCiIkMiUTgE8SmHWeDidyzSeugZIodpmCgqCwzHFUwBfvwHG5fFcNGu5q4BAVWxbwbsJ3lHe2azMnfOOYIEAAzF+O526DEjRcR9TSDbqdE+maRwuNC1O9f07jctmvfQBkEJhhOjHbLJcs5K31jvOZgAOxO3tTeoTIEWn4jQjQJm7N70c1tCLFQyrO0XCapO4dB8BgcSzlN5P3pZY87a4u1vBQOzl3qa+AlJ0+BIKyrq9HQETG46IIcV7BiKJ9Dr1HZCi8xHkDiteCMTd54SLhgBHyM1TndKPgLzZnVPquwneT/AI1qeEG2oBxil9arRPWwnIRJU+qKCYXMDi0wkN5kE82+JxCnFumSZTgICMHhJYDsZj1yodHTVHKBx3drR9Js0iIG4Z8YERoCzoztqKHBcoGBe1orYNV5KA+HXAtKVt9W29IjraHRp+ErYzFwGp1m+I2YWX+E2rFWs09yul94ynGq1JC50TkHqdhiDcAGX5esWTlTpZ4bgumceOOSIgYR26lYLy4TAz5qWv1OOuSe7QMK99RgYJSHhnzFx6P8GFQU2mR0uPU683WZGu+CYgdj2Juxnx2LW+nclKlg5VOO6tVIqZxypAQOwHyNoKytL2podaxN0Ze4sIrkBmMlaAgBgLWjKH2QQ/3IMSI+FxCmAcEMM4bb6hAAGJOxI+oB8Ztzd2c5TCgS3pTBEVICARxS2ZXlZnEwTjDklXKBiIccuUQAECkkDkkouvKCi43qFKwm1LeJzCj6tTVZQLzEtAAgWsURwXAxXvJz53xx+vYNxawxeLBCpAQAIFDCiOu+OxCXLzETbw9RszBg4xMTWkAAFpSPiS2xX12wm21yPWMMC4XuHApZZMDSpAQBoUn67zV4CA5N9HrGGDChCQBsWn6/wVICD59xFr2KACBKRB8ek6fwUISP59xBo2qMD/AOHk5/a3ASLPAAAAAElFTkSuQmCC;" vertex="1" parent="1">
          <mxGeometry x="-200" y="323" width="67" height="67" as="geometry" />
        </mxCell>
        <mxCell id="rij7Vu_CJ73uvpwCJqc9-38" value="" style="shape=flexArrow;endArrow=classic;html=1;rounded=0;" edge="1" parent="1">
          <mxGeometry width="50" height="50" relative="1" as="geometry">
            <mxPoint x="-134" y="357.5" as="sourcePoint" />
            <mxPoint x="-44" y="357.5" as="targetPoint" />
          </mxGeometry>
        </mxCell>
        <mxCell id="rij7Vu_CJ73uvpwCJqc9-39" value="内网Nginx" style="text;html=1;align=center;verticalAlign=middle;whiteSpace=wrap;rounded=0;" vertex="1" parent="1">
          <mxGeometry x="-200" y="385" width="65" height="30" as="geometry" />
        </mxCell>
        <mxCell id="rij7Vu_CJ73uvpwCJqc9-40" value="Nginx和缓存源点对点通信" style="text;html=1;align=center;verticalAlign=middle;whiteSpace=wrap;rounded=0;" vertex="1" parent="1">
          <mxGeometry x="-47.5" y="280" width="85" height="30" as="geometry" />
        </mxCell>
        <mxCell id="rij7Vu_CJ73uvpwCJqc9-41" value="获取国外官方的pip、conda、pytorch、nvidia源" style="text;html=1;align=center;verticalAlign=middle;whiteSpace=wrap;rounded=0;" vertex="1" parent="1">
          <mxGeometry x="341" y="240" width="145.5" height="30" as="geometry" />
        </mxCell>
      </root>
    </mxGraphModel>
  </diagram>
</mxfile>
